# This file uses centimeters as units for non-parametric coordinates.

mtllib SingleCross.mtl
g default
v -0.500000 0.500000 0.500000
v -0.500000 0.500000 -0.500000
v 0.500000 0.500000 -0.500000
v 0.312500 0.500000 0.500000
v 0.500000 0.500000 0.312500
v 0.312500 0.500000 0.312500
v 0.500000 0.500000 -0.312500
v -0.500000 0.500000 -0.312500
v -0.312500 0.500000 0.500000
v -0.312500 0.500000 -0.312500
v -0.312500 0.500000 -0.500000
v -0.312500 0.510669 -0.312500
v -0.312500 0.510669 -0.500000
v -0.500000 0.510669 -0.500000
v -0.500000 0.510669 -0.312500
v -0.500000 0.510669 0.500000
v -0.312500 0.510669 0.500000
v 0.500000 0.510669 -0.500000
v 0.500000 0.510669 -0.312500
v 0.500000 0.510669 0.312500
v 0.312500 0.510669 0.312500
v 0.312500 0.510669 0.500000
v 0.500000 0.510669 0.500000
vt 0.229543 0.796360
vt 0.229579 0.971083
vt 0.038831 0.969349
vt 0.966994 0.008953
vt 0.967911 0.771024
vt 0.790286 0.771022
vt 0.762365 0.182497
vt 0.741091 0.753459
vt 0.986466 0.788294
vt 0.595255 0.173494
vt 0.986615 0.971823
vt 0.986603 0.795222
vt 0.762366 0.173500
vt 0.604252 0.173494
vt 0.604258 0.015380
vt 0.762372 0.015387
vt 0.783045 0.770980
vt 0.573918 0.028789
vt 0.229541 0.786419
vt 0.229581 0.981024
vt 0.038830 0.979152
vt 0.029045 0.797066
vt 0.974944 0.770905
vt 0.986497 0.978815
vt 0.016471 0.028974
vt 0.016482 0.753587
vt 0.741182 0.196024
vt 0.573933 0.196038
vt 0.595262 0.015380
vt 0.211129 0.797084
vt 0.038847 0.797067
vt 0.977002 0.008953
vt 0.211113 0.969365
vt 0.211112 0.979168
vt 0.781102 0.008955
vt 0.791110 0.008955
vt 0.029028 0.969348
vt 0.604252 0.182490
vn 0.000000 1.000000 0.000000
vn 0.000000 1.000000 0.000000
vn 0.000000 1.000000 0.000000
vn 0.000000 1.000000 0.000000
vn 0.000000 1.000000 0.000000
vn 0.000000 1.000000 0.000000
vn 0.000000 1.000000 0.000000
vn 0.000000 1.000000 0.000000
vn 0.000000 1.000000 0.000000
vn 0.000000 1.000000 0.000000
vn 0.000000 1.000000 0.000000
vn 0.000000 1.000000 0.000000
vn 0.000000 1.000000 0.000000
vn 0.000000 1.000000 0.000000
vn 0.000000 1.000000 0.000000
vn 0.000000 1.000000 0.000000
vn 0.000000 1.000000 0.000000
vn 0.000000 1.000000 0.000000
vn 0.000000 0.000000 -1.000000
vn 0.000000 0.000000 -1.000000
vn 0.000000 0.000000 -1.000000
vn 0.000000 0.000000 -1.000000
vn -1.000000 0.000000 0.000000
vn -1.000000 0.000000 0.000000
vn -1.000000 0.000000 0.000000
vn -1.000000 0.000000 0.000000
vn -1.000000 0.000000 0.000000
vn -1.000000 0.000000 0.000000
vn -1.000000 0.000000 0.000000
vn -1.000000 0.000000 0.000000
vn 1.000000 0.000000 0.000000
vn 1.000000 0.000000 0.000000
vn 1.000000 0.000000 0.000000
vn 1.000000 0.000000 0.000000
vn 0.000000 0.000000 -1.000000
vn 0.000000 0.000000 -1.000000
vn 0.000000 0.000000 -1.000000
vn 0.000000 0.000000 -1.000000
vn 0.000000 0.000000 1.000000
vn 0.000000 0.000000 1.000000
vn 0.000000 0.000000 1.000000
vn 0.000000 0.000000 1.000000
vn 0.000000 0.000000 -1.000000
vn 0.000000 0.000000 -1.000000
vn 0.000000 0.000000 -1.000000
vn 0.000000 0.000000 -1.000000
vn -1.000000 0.000000 0.000000
vn -1.000000 0.000000 0.000000
vn -1.000000 0.000000 0.000000
vn -1.000000 0.000000 0.000000
s 1
g pCube173
usemtl initialShadingGroup
f 12/30/1 13/33/2 14/3/3 15/31/4
f 15/4/4 16/5/5 17/6/6 12/36/1
s 2
f 5/27/7 7/8/8 6/28/9
s 1
f 18/11/10 13/2/2 12/1/1 19/12/11
s off
f 20/13/12 21/14/13 22/15/14 23/16/15
s 2
f 6/28/9 9/25/16 4/18/17
f 6/28/9 7/8/8 10/26/18 9/25/16
s off
f 11/34/19 2/21/20 14/3/21 13/33/22
f 2/37/23 8/22/24 15/31/25 14/3/26
f 8/32/27 1/23/28 16/5/29 15/4/30
f 9/17/31 10/35/32 12/36/33 17/6/34
f 3/24/35 11/20/36 13/2/37 18/11/38
f 10/19/39 7/9/40 19/12/41 12/1/42
f 5/7/43 6/38/44 21/14/45 20/13/46
f 6/10/47 4/29/48 22/15/49 21/14/50
