# Wavefront Obj file
# 
# verts: 15 uv-s: 15
mtllib Round Block Up2.mtl

g polySurface4

v 0.500000 -0.500000 -0.500000
v -0.500000 -0.500000 -0.500000
v 0.500000 0.338766 -0.500000
v -0.500000 0.500000 -0.500000
v 0.500000 0.338766 0.500000
v -0.500000 0.500000 0.500000
v 0.404405 -0.500000 -0.500000
v 0.404405 0.419988 -0.500000
v 0.404405 0.419988 0.500000
v 0.314791 -0.500000 -0.500000
v 0.314791 0.472736 -0.500000
v 0.314791 0.472736 0.500000
v 0.194533 -0.500000 -0.500000
v 0.194533 0.498545 -0.500000
v 0.194533 0.498545 0.500000
# 15 positions

vt 0.901361 0.962684
vt 0.910973 0.921080
vt 0.523907 0.842111
vt 0.542284 0.892082
vt 0.096666 0.902940
vt 0.105970 0.958786
vt 0.920116 0.881335
vt 0.513514 0.798975
vt 0.089310 0.856344
vt 0.931839 0.827384
vt 0.509846 0.746152
vt 0.081285 0.800605
vt 0.981449 0.512371
vt 0.518420 0.449003
vt 0.051583 0.483388
# 15 texture coordinates

vn 0.000000 0.000000 -1.000000
vn 0.000000 0.000000 -1.000000
vn 0.000000 0.000000 -1.000000
vn 0.000000 0.000000 -1.000000
vn 0.647492 0.762072 0.000000
vn 0.579526 0.814954 0.000000
vn 0.579526 0.814954 0.000000
vn 0.647492 0.762072 0.000000
vn 0.000000 0.000000 -1.000000
vn 0.000000 0.000000 -1.000000
vn 0.363205 0.931709 0.000000
vn 0.363205 0.931709 0.000000
vn 0.000000 0.000000 -1.000000
vn 0.000000 0.000000 -1.000000
vn 0.106548 0.994307 0.000000
vn 0.106548 0.994307 0.000000
vn 0.000000 0.000000 -1.000000
vn 0.000000 0.000000 -1.000000
vn 0.002095 0.999998 0.000000
vn 0.002095 0.999998 0.000000
# 20 normals

usemtl initialShadingGroup
s 1
f 1/1/1 7/2/2 8/3/3 3/4/4
f 8/3/3 7/2/2 10/7/9 11/8/10
f 11/8/10 10/7/9 13/10/13 14/11/14
f 14/11/14 13/10/13 2/13/17 4/14/18
s 2
f 3/4/5 8/3/6 9/5/7 5/6/8
f 9/5/7 8/3/6 11/8/11 12/9/12
f 12/9/12 11/8/11 14/11/15 15/12/16
f 15/12/16 14/11/15 4/14/19 6/15/20

# 8 faces
