# Wavefront Obj file
# 
# verts: 68 uv-s: 69
mtllib Lava Done.mtl

g pCube1

v -1.000000 -0.500000 0.500000
v -1.000000 -0.162845 0.500000
v 1.000000 -0.162800 0.500000
v -1.000000 -0.162414 -0.500000
v 1.000000 -0.172753 -0.500000
v -1.000000 -0.500000 -0.500000
v 1.000000 -0.501673 -0.500000
v -0.779328 -0.165671 0.500000
v -0.779328 -0.161905 -0.500000
v -0.779328 -0.500000 -0.500000
v -0.486618 -0.166574 0.500000
v -0.486618 -0.158583 -0.500000
v -0.486618 -0.499821 -0.500000
v -0.199827 -0.168475 0.500000
v -0.199827 -0.161837 -0.500000
v -0.199827 -0.500000 -0.500000
v 0.068754 -0.168267 0.500000
v 0.068754 -0.164024 -0.500000
v 0.068754 -0.500156 -0.500000
v 0.347994 -0.176701 0.500000
v 0.347994 -0.163986 -0.500000
v 0.347994 -0.501125 -0.500000
v 0.609080 -0.173480 0.500000
v 0.609080 -0.172805 -0.500000
v 0.609080 -0.501436 -0.500000
v 0.822229 -0.165596 0.500000
v 0.822229 -0.177180 -0.500000
v 0.822229 -0.503143 -0.500000
v -1.000000 -0.500000 -0.324626
v -1.000000 -0.162914 -0.324626
v -0.779328 -0.159566 -0.324626
v -0.486618 -0.149684 -0.324626
v -0.199827 -0.162317 -0.324626
v 0.068754 -0.160577 -0.324626
v 0.347994 -0.155983 -0.324626
v 0.609080 -0.174510 -0.324626
v 0.822229 -0.185857 -0.324626
v 1.000000 -0.179561 -0.324626
v -1.000000 -0.500569 -0.132458
v -1.000000 -0.167989 -0.132458
v -0.779328 -0.164627 -0.132458
v -0.486618 -0.156577 -0.132458
v -0.199827 -0.180757 -0.132458
v 0.068754 -0.166142 -0.132458
v 0.347994 -0.147539 -0.132458
v 0.609080 -0.168353 -0.132458
v 0.822229 -0.182981 -0.132458
v 1.000000 -0.177444 -0.132458
v -1.000000 -0.501880 0.085036
v -1.000000 -0.172091 0.085036
v -0.779328 -0.173956 0.085036
v -0.486618 -0.175216 0.085036
v -0.199827 -0.199715 0.085036
v 0.068754 -0.177591 0.085036
v 0.347994 -0.154148 0.085036
v 0.609080 -0.166567 0.085036
v 0.822229 -0.173357 0.085036
v 1.000000 -0.167754 0.085036
v -1.000000 -0.500825 0.272517
v -1.000000 -0.168929 0.272517
v -0.779328 -0.174197 0.272517
v -0.486618 -0.177671 0.272517
v -0.199827 -0.192801 0.272517
v 0.068754 -0.177846 0.272517
v 0.347994 -0.171310 0.272517
v 0.609080 -0.173715 0.272517
v 0.822229 -0.168729 0.272517
v 1.000000 -0.164180 0.272517
# 68 positions

vt 0.737765 0.407364
vt 0.661517 0.407408
vt 0.661411 0.285356
vt 0.738095 0.285371
vt 0.661541 0.050183
vt 0.738239 0.050348
vt 0.972698 0.288113
vt 0.971301 0.410274
vt 0.559809 0.407460
vt 0.559909 0.286452
vt 0.559697 0.050020
vt 0.459757 0.406972
vt 0.460540 0.285087
vt 0.459817 0.050294
vt 0.366423 0.406007
vt 0.367299 0.284156
vt 0.366344 0.050707
vt 0.269231 0.405023
vt 0.270476 0.284048
vt 0.269008 0.050838
vt 0.177530 0.403053
vt 0.179505 0.280603
vt 0.178466 0.051654
vt 0.103319 0.402162
vt 0.104873 0.278754
vt 0.104756 0.050782
vt 0.041602 0.401682
vt 0.042713 0.280168
vt 0.043249 0.051730
vt 0.969568 0.543924
vt 0.738623 0.541245
vt 0.661907 0.541173
vt 0.560103 0.540486
vt 0.459216 0.540896
vt 0.365501 0.539384
vt 0.267853 0.538211
vt 0.176242 0.537019
vt 0.101738 0.536077
vt 0.039932 0.535719
vt 0.968658 0.694702
vt 0.738628 0.693292
vt 0.661557 0.692800
vt 0.559619 0.691996
vt 0.458529 0.691617
vt 0.364222 0.690524
vt 0.266163 0.688833
vt 0.175214 0.688414
vt 0.101026 0.687754
vt 0.039148 0.687486
vt 0.967316 0.824556
vt 0.736511 0.824414
vt 0.659626 0.823348
vt 0.557671 0.822275
vt 0.457262 0.820943
vt 0.363110 0.820578
vt 0.265670 0.819560
vt 0.174734 0.818893
vt 0.100514 0.818292
vt 0.038636 0.817929
vt 0.967032 0.982360
vt 0.733281 0.982953
vt 0.656845 0.981690
vt 0.555252 0.980488
vt 0.455464 0.979447
vt 0.361929 0.978732
vt 0.264552 0.977698
vt 0.173735 0.976958
vt 0.099431 0.976437
vt 0.037633 0.976012
# 69 texture coordinates

vn -0.011970 0.999873 0.010562
vn -0.019278 0.999801 0.005046
vn -0.015639 0.999704 -0.018631
vn -0.008739 0.999948 -0.005243
vn 0.000000 0.000000 -1.000000
vn 0.000000 0.000000 -1.000000
vn 0.000000 0.000000 -1.000000
vn 0.000000 0.000000 -1.000000
vn -1.000000 0.000000 0.000000
vn -1.000000 0.000000 0.000000
vn -1.000000 0.000000 0.000000
vn -1.000000 0.000000 0.000000
vn 0.009624 0.999902 0.010198
vn 0.002572 0.999604 -0.028010
vn 0.000000 0.000000 -1.000000
vn 0.000000 0.000000 -1.000000
vn 0.015562 0.999592 0.023942
vn 0.014258 0.999767 -0.016225
vn 0.000000 0.000000 -1.000000
vn 0.000000 0.000000 -1.000000
vn -0.019849 0.999797 0.003433
vn -0.003729 0.999782 -0.020545
vn 0.000000 0.000000 -1.000000
vn 0.000000 0.000000 -1.000000
vn 0.019423 0.999523 -0.024008
vn 0.022026 0.999438 -0.025286
vn 0.000000 0.000000 -1.000000
vn 0.000000 0.000000 -1.000000
vn 0.056268 0.998339 -0.012413
vn 0.044580 0.998989 0.005817
vn 0.000000 0.000000 -1.000000
vn 0.000000 0.000000 -1.000000
vn 0.008573 0.999920 0.009303
vn 0.003361 0.999315 0.036848
vn 0.000000 0.000000 -1.000000
vn 0.000000 0.000000 -1.000000
vn -0.031701 0.999376 0.015567
vn -0.030117 0.998574 0.044086
vn 0.000000 0.000000 -1.000000
vn 0.000000 0.000000 -1.000000
vn -1.000000 0.000000 0.000000
vn -1.000000 0.000000 0.000000
vn -0.009292 0.999547 0.028612
vn -0.015192 0.999158 0.038126
vn 0.026491 0.997742 0.061722
vn 0.012448 0.997398 0.071007
vn -0.053775 0.997692 0.041472
vn 0.005520 0.999983 0.001786
vn 0.062405 0.997868 -0.019122
vn 0.011612 0.999574 -0.026763
vn -0.032277 0.999068 -0.028672
vn -1.000000 0.000000 0.000000
vn -1.000000 0.000000 0.000000
vn 0.006386 0.999913 0.011539
vn 0.002321 0.999718 0.023616
vn 0.037533 0.998631 0.036445
vn 0.004068 0.999495 0.031506
vn -0.066401 0.997182 0.034928
vn -0.009180 0.999121 0.040902
vn 0.036589 0.999231 0.014096
vn -0.001350 0.999769 -0.021441
vn -0.029912 0.999005 -0.033093
vn -1.000000 0.000000 0.000000
vn -1.000000 0.000000 0.000000
vn 0.017245 0.999652 -0.019945
vn 0.012512 0.999742 -0.018949
vn 0.028548 0.999100 -0.031381
vn 0.000380 0.998970 -0.045373
vn -0.036835 0.999227 -0.013759
vn -0.005865 0.999582 0.028322
vn 0.000201 0.999822 0.018842
vn -0.018789 0.999790 -0.008118
vn -0.024594 0.999571 -0.015888
vn -1.000000 0.000000 0.000000
vn -1.000000 0.000000 0.000000
vn 0.018327 0.999317 -0.032090
vn 0.012900 0.999210 -0.037590
vn 0.018532 0.998005 -0.060350
vn 0.000732 0.997110 -0.075970
vn -0.012385 0.999050 -0.041786
vn 0.000918 0.999999 0.001065
vn -0.015872 0.999872 0.001967
vn -0.025414 0.999640 -0.008658
vn -0.020653 0.999738 -0.009917
# 84 normals

usemtl initialShadingGroup
s 1
f 30/1/1 31/2/2 9/3/3 4/4/4
f 9/3/3 31/2/2 32/9/13 12/10/14
f 12/10/14 32/9/13 33/12/17 15/13/18
f 15/13/18 33/12/17 34/15/21 18/16/22
f 18/16/22 34/15/21 35/18/25 21/19/26
f 21/19/26 35/18/25 36/21/29 24/22/30
f 24/22/30 36/21/29 37/24/33 27/25/34
f 27/25/34 37/24/33 38/27/37 5/28/38
f 40/31/43 41/32/44 31/2/2 30/1/1
f 32/9/13 31/2/2 41/32/44 42/33/45
f 33/12/17 32/9/13 42/33/45 43/34/46
f 34/15/21 33/12/17 43/34/46 44/35/47
f 35/18/25 34/15/21 44/35/47 45/36/48
f 36/21/29 35/18/25 45/36/48 46/37/49
f 37/24/33 36/21/29 46/37/49 47/38/50
f 38/27/37 37/24/33 47/38/50 48/39/51
f 50/41/54 51/42/55 41/32/44 40/31/43
f 42/33/45 41/32/44 51/42/55 52/43/56
f 43/34/46 42/33/45 52/43/56 53/44/57
f 44/35/47 43/34/46 53/44/57 54/45/58
f 45/36/48 44/35/47 54/45/58 55/46/59
f 46/37/49 45/36/48 55/46/59 56/47/60
f 47/38/50 46/37/49 56/47/60 57/48/61
f 48/39/51 47/38/50 57/48/61 58/49/62
f 60/51/65 61/52/66 51/42/55 50/41/54
f 52/43/56 51/42/55 61/52/66 62/53/67
f 53/44/57 52/43/56 62/53/67 63/54/68
f 54/45/58 53/44/57 63/54/68 64/55/69
f 55/46/59 54/45/58 64/55/69 65/56/70
f 56/47/60 55/46/59 65/56/70 66/57/71
f 57/48/61 56/47/60 66/57/71 67/58/72
f 58/49/62 57/48/61 67/58/72 68/59/73
f 2/61/76 8/62/77 61/52/66 60/51/65
f 62/53/67 61/52/66 8/62/77 11/63/78
f 63/54/68 62/53/67 11/63/78 14/64/79
f 64/55/69 63/54/68 14/64/79 17/65/80
f 65/56/70 64/55/69 17/65/80 20/66/81
f 66/57/71 65/56/70 20/66/81 23/67/82
f 67/58/72 66/57/71 23/67/82 26/68/83
f 68/59/73 67/58/72 26/68/83 3/69/84
s 2
f 4/4/5 9/3/6 10/5/7 6/6/8
f 10/5/7 9/3/6 12/10/15 13/11/16
f 13/11/16 12/10/15 15/13/19 16/14/20
f 16/14/20 15/13/19 18/16/23 19/17/24
f 19/17/24 18/16/23 21/19/27 22/20/28
f 22/20/28 21/19/27 24/22/31 25/23/32
f 25/23/32 24/22/31 27/25/35 28/26/36
f 28/26/36 27/25/35 5/28/39 7/29/40
s 3
f 6/7/9 29/8/10 30/1/11 4/4/12
f 30/1/11 29/8/10 39/30/41 40/31/42
f 40/31/42 39/30/41 49/40/52 50/41/53
f 50/41/53 49/40/52 59/50/63 60/51/64
f 60/51/64 59/50/63 1/60/74 2/61/75

# 53 faces
