# Wavefront Obj file
# 
# verts: 18 uv-s: 18
mtllib Down.mtl

g polySurface7

v -0.500000 -0.500000 -0.500000
v 0.500000 -0.500000 -0.500000
v 0.500000 0.338762 -0.500000
v -0.500000 -0.500000 0.500000
v 0.500000 0.338766 0.500000
v 0.319683 0.113685 -0.500000
v 0.319683 0.113689 0.500000
v 0.063928 -0.146975 0.500000
v 0.063928 -0.146977 -0.500000
v 0.500000 -0.145849 -0.500000
v -0.235466 -0.373660 0.500000
v -0.235466 -0.373661 -0.500000
v 0.500000 -0.374807 -0.500000
v -0.500000 -1.500000 -0.500000
v 0.500000 -1.500000 -0.500000
v -0.400248 -0.459690 0.500000
v -0.400248 -0.459691 -0.500000
v 0.500000 -0.456916 -0.500000
# 18 positions

vt 0.497966 0.615737
vt 0.462593 0.767246
vt 0.437255 0.884052
vt 0.349495 0.718344
vt 0.892738 0.736977
vt 0.852824 0.877270
vt 0.822965 0.990461
vt 0.940211 0.595563
vt 0.542515 0.462604
vt 0.299574 0.646035
vt 0.966046 0.525079
vt 0.572868 0.391601
vt 0.279708 0.620322
vt 0.268962 0.606651
vt 0.013898 0.284626
vt 0.337185 0.029464
vt 0.593609 0.352653
vt 0.981302 0.484021
# 18 texture coordinates

vn 0.000000 0.000000 -1.000000
vn 0.000000 0.000000 -1.000000
vn 0.000000 0.000000 -1.000000
vn 0.000000 0.000000 -1.000000
vn -0.660497 0.750829 -0.000002
vn -0.748059 0.663632 -0.000002
vn -0.748059 0.663632 -0.000002
vn -0.660496 0.750829 -0.000002
vn -0.780437 0.625235 -0.000002
vn -0.780437 0.625235 -0.000002
vn -0.535085 0.844798 -0.000001
vn -0.535085 0.844799 -0.000001
vn 0.000000 0.000000 -1.000000
vn 0.000000 0.000000 -1.000000
vn -0.419229 0.907881 -0.000001
vn -0.419229 0.907881 -0.000001
vn 0.000000 0.000000 -1.000000
vn 0.000000 0.000000 -1.000000
vn 0.000000 0.000000 -1.000000
vn 0.000000 0.000000 -1.000000
vn 0.000000 0.000000 -1.000000
vn 0.000000 0.000000 -1.000000
vn -0.374663 0.927161 -0.000000
vn -0.374663 0.927161 -0.000000
# 24 normals

usemtl initialShadingGroup
s 1
f 9/1/1 6/2/2 3/3/3 10/4/4
f 12/9/13 9/1/1 10/4/4 13/10/14
f 17/12/17 12/9/13 13/10/14 18/13/18
f 2/14/19 15/15/20 14/16/21 1/17/22
f 1/17/22 17/12/17 18/13/18 2/14/19
s 2
f 8/5/5 7/6/6 6/2/7 9/1/8
f 7/6/6 5/7/9 3/3/10 6/2/7
f 11/8/11 8/5/5 9/1/8 12/9/12
f 16/11/15 11/8/11 12/9/12 17/12/16
f 1/17/23 4/18/24 16/11/15 17/12/16

# 10 faces
