# Wavefront Obj file
# 
# verts: 15 uv-s: 15
mtllib Block_up.mtl

g pCube3

v -0.500000 -0.500000 0.500000
v 0.500000 -0.500000 0.500000
v 0.500000 0.500000 0.500000
v 0.500000 0.500000 -0.500000
v -0.500000 -0.500000 -0.500000
v -0.500000 -1.500590 0.500000
v -0.242333 -0.352415 0.500000
v -0.242333 -0.352415 -0.500000
v -0.242333 -1.242771 0.500000
v -0.018641 -0.172325 -0.500000
v -0.018641 -0.172325 0.500000
v -0.018641 -1.018947 0.500000
v 0.189783 0.058521 -0.500000
v 0.189783 0.058521 0.500000
v 0.167769 -0.832427 0.500000
# 15 positions

vt 0.426319 0.364553
vt 0.322757 0.380675
vt 0.021656 0.054985
vt 0.149363 0.059010
vt 0.338498 0.820949
vt 0.437409 0.816308
vt 0.299984 0.069395
vt 0.569927 0.356771
vt 0.574601 0.813687
vt 0.437127 0.075161
vt 0.720471 0.360528
vt 0.719198 0.814593
vt 0.646051 0.076622
vt 0.980132 0.371633
vt 0.970480 0.818900
# 15 texture coordinates

vn 0.000000 0.000000 1.000000
vn 0.000000 0.000000 1.000000
vn 0.000000 0.000000 1.000000
vn 0.000000 0.000000 1.000000
vn -0.497019 0.867740 0.000000
vn -0.497019 0.867740 0.000000
vn -0.563813 0.825902 0.000000
vn -0.563813 0.825902 0.000000
vn 0.000000 0.000000 1.000000
vn 0.000000 0.000000 1.000000
vn -0.686827 0.726821 0.000000
vn -0.686827 0.726821 0.000000
vn 0.000000 0.000000 1.000000
vn 0.000000 0.000000 1.000000
vn -0.781669 0.623694 0.000000
vn -0.781669 0.623694 0.000000
vn 0.000000 0.000000 1.000000
vn 0.000000 0.000000 1.000000
vn -0.818202 0.574931 0.000000
vn -0.818202 0.574931 0.000000
# 20 normals

usemtl initialShadingGroup
s 1
f 7/1/1 1/2/2 6/3/3 9/4/4
f 12/7/9 11/8/10 7/1/1 9/4/4
f 15/10/13 14/11/14 11/8/10 12/7/9
f 2/13/17 3/14/18 14/11/14 15/10/13
s 2
f 5/5/5 1/2/6 7/1/7 8/6/8
f 8/6/8 7/1/7 11/8/11 10/9/12
f 10/9/12 11/8/11 14/11/15 13/12/16
f 13/12/16 14/11/15 3/14/19 4/15/20

# 8 faces
