# Wavefront Obj file
# 
# verts: 6 uv-s: 6
mtllib Block_up.mtl

g pCube3

v -0.500000 -0.500000 0.500000
v 0.500000 -0.500000 0.500000
v 0.500000 0.500000 0.500000
v 0.500000 0.500000 -0.500000
v -0.500000 -0.500000 -0.500000
v -0.500000 -1.500590 0.500000
# 6 positions

vt 0.336541 0.372550
vt 0.658144 0.050870
vt 0.979824 0.372473
vt 0.336595 0.827420
vt 0.979879 0.827343
vt 0.014671 0.050757
# 6 texture coordinates

vn 0.000000 0.000000 1.000000
vn 0.000000 0.000000 1.000000
vn 0.000000 0.000000 1.000000
vn -0.707107 0.707107 0.000000
vn -0.707107 0.707107 0.000000
vn -0.707107 0.707107 0.000000
vn -0.707107 0.707107 0.000000
vn 0.000000 0.000000 1.000000
# 8 normals

usemtl initialShadingGroup
s 1
f 1/1/1 2/2/2 3/3/3
f 2/2/2 1/1/1 6/6/8
s 2
f 5/4/4 1/1/5 3/3/6 4/5/7

# 3 faces
