# This file uses centimeters as units for non-parametric coordinates.

mtllib house 2x3.mtl
g default
v 1.500000 0.510248 0.500002
v -0.500000 0.510248 0.500002
v 1.500000 0.510248 3.500003
v -0.500000 0.510248 3.500003
v 1.427601 0.510248 0.608601
v -0.427601 0.510248 0.608601
v -0.427601 0.510248 3.391404
v 1.427601 0.510248 3.391404
v 1.427601 1.437018 0.608601
v -0.427601 1.437018 0.608601
v -0.427601 1.437018 3.391404
v 1.427601 1.437018 3.391404
v 1.349545 1.437018 0.725685
v -0.349545 1.437018 0.725685
v -0.349545 1.437018 3.274319
v 1.349545 1.437018 3.274319
v 1.349545 1.375596 0.725685
v -0.349545 1.375596 0.725685
v -0.349545 1.375596 3.274319
v 1.349545 1.375596 3.274319
v 1.271259 1.375596 0.843114
v -0.271259 1.375596 0.843114
v -0.271259 1.375596 3.156891
v 1.271259 1.375596 3.156891
v 0.945121 2.351707 0.843114
v 0.054879 2.351707 0.843114
v 0.054879 2.351707 3.156891
v 0.945121 2.351707 3.156891
v 0.945121 2.485218 0.843114
v 0.054879 2.485218 0.843114
v 0.054879 2.485218 3.156891
v 0.945121 2.485218 3.156891
v 0.533933 2.723249 0.843114
v 0.466067 2.723249 0.843114
v 0.466067 2.723249 3.156890
v 0.533933 2.723249 3.156890
vt 0.375000 0.250000
vt 0.625000 0.250000
vt 0.625000 0.500000
vt 0.375000 0.500000
vt 0.375000 0.250000
vt 0.625000 0.250000
vt 0.625000 0.250000
vt 0.375000 0.250000
vt 0.625000 0.500000
vt 0.625000 0.500000
vt 0.375000 0.500000
vt 0.375000 0.500000
vt 0.625000 0.250000
vt 0.375000 0.250000
vt 0.625000 0.500000
vt 0.375000 0.500000
vt 0.625000 0.250000
vt 0.375000 0.250000
vt 0.625000 0.500000
vt 0.375000 0.500000
vt 0.625000 0.250000
vt 0.375000 0.250000
vt 0.625000 0.500000
vt 0.375000 0.500000
vt 0.625000 0.250000
vt 0.375000 0.250000
vt 0.625000 0.500000
vt 0.375000 0.500000
vt 0.625000 0.250000
vt 0.375000 0.250000
vt 0.625000 0.500000
vt 0.375000 0.500000
vt 0.625000 0.250000
vt 0.375000 0.250000
vt 0.625000 0.500000
vt 0.375000 0.500000
vn 0.000000 1.000000 0.000000
vn 0.000000 1.000000 0.000000
vn 0.000000 1.000000 0.000000
vn 0.000000 1.000000 0.000000
vn 0.000000 1.000000 0.000000
vn 0.000000 1.000000 0.000000
vn 0.000000 1.000000 0.000000
vn 0.000000 1.000000 0.000000
vn 0.000000 1.000000 0.000000
vn 0.000000 1.000000 0.000000
vn 0.000000 1.000000 0.000000
vn 0.000000 1.000000 0.000000
vn 0.000000 1.000000 -0.000000
vn 0.000000 1.000000 -0.000000
vn 0.000000 1.000000 -0.000000
vn 0.000000 1.000000 -0.000000
vn 0.000000 1.000000 0.000000
vn 0.000000 1.000000 0.000000
vn 0.000000 1.000000 0.000000
vn 0.000000 1.000000 0.000000
vn 0.000000 0.000000 -1.000000
vn 0.000000 0.000000 -1.000000
vn 0.000000 0.000000 -1.000000
vn 0.000000 0.000000 -1.000000
vn -1.000000 0.000000 0.000000
vn -1.000000 0.000000 0.000000
vn -1.000000 0.000000 0.000000
vn -1.000000 0.000000 0.000000
vn 0.000000 0.000000 1.000000
vn 0.000000 0.000000 1.000000
vn 0.000000 0.000000 1.000000
vn 0.000000 0.000000 1.000000
vn 1.000000 0.000000 0.000000
vn 1.000000 0.000000 0.000000
vn 1.000000 0.000000 0.000000
vn 1.000000 0.000000 0.000000
vn 0.000000 1.000000 0.000001
vn 0.000000 1.000000 0.000001
vn 0.000000 1.000000 0.000001
vn 0.000000 1.000000 0.000001
vn 0.000000 1.000000 0.000000
vn 0.000000 1.000000 0.000000
vn 0.000000 1.000000 0.000000
vn 0.000000 1.000000 0.000000
vn 0.000000 1.000000 -0.000001
vn 0.000000 1.000000 -0.000001
vn 0.000000 1.000000 -0.000001
vn 0.000000 1.000000 -0.000001
vn 0.000000 1.000000 0.000000
vn 0.000000 1.000000 0.000000
vn 0.000000 1.000000 0.000000
vn 0.000000 1.000000 0.000000
vn 0.000000 0.000000 1.000000
vn 0.000000 0.000000 1.000000
vn 0.000000 0.000000 1.000000
vn 0.000000 0.000000 1.000000
vn 1.000000 0.000000 0.000000
vn 1.000000 0.000000 0.000000
vn 1.000000 0.000000 0.000000
vn 1.000000 0.000000 0.000000
vn 0.000000 0.000000 -1.000000
vn 0.000000 0.000000 -1.000000
vn 0.000000 0.000000 -1.000000
vn 0.000000 0.000000 -1.000000
vn -1.000000 0.000000 0.000000
vn -1.000000 0.000000 0.000000
vn -1.000000 0.000000 0.000000
vn -1.000000 0.000000 0.000000
vn 0.000000 1.000000 -0.000001
vn 0.000000 1.000000 -0.000001
vn 0.000000 1.000000 -0.000001
vn 0.000000 1.000000 -0.000001
vn 0.000000 1.000000 0.000000
vn 0.000000 1.000000 0.000000
vn 0.000000 1.000000 0.000000
vn 0.000000 1.000000 0.000000
vn 0.000000 1.000000 0.000001
vn 0.000000 1.000000 0.000001
vn 0.000000 1.000000 0.000001
vn 0.000000 1.000000 0.000001
vn 0.000000 1.000000 0.000000
vn 0.000000 1.000000 0.000000
vn 0.000000 1.000000 0.000000
vn 0.000000 1.000000 0.000000
vn 0.000000 0.000000 -1.000000
vn 0.000000 0.000000 -1.000000
vn 0.000000 0.000000 -1.000000
vn 0.000000 0.000000 -1.000000
vn -0.948460 0.316899 0.000000
vn -0.948460 0.316899 0.000000
vn -0.948460 0.316899 0.000000
vn -0.948460 0.316899 0.000000
vn 0.000000 0.000000 1.000000
vn 0.000000 0.000000 1.000000
vn 0.000000 0.000000 1.000000
vn 0.000000 0.000000 1.000000
vn 0.948460 0.316899 0.000000
vn 0.948460 0.316899 0.000000
vn 0.948460 0.316899 0.000000
vn 0.948460 0.316899 0.000000
vn 0.000000 0.000000 -1.000000
vn 0.000000 0.000000 -1.000000
vn 0.000000 0.000000 -1.000000
vn 0.000000 0.000000 -1.000000
vn -1.000000 0.000000 0.000000
vn -1.000000 0.000000 0.000000
vn -1.000000 0.000000 0.000000
vn -1.000000 0.000000 0.000000
vn 0.000000 0.000000 1.000000
vn 0.000000 0.000000 1.000000
vn 0.000000 0.000000 1.000000
vn 0.000000 0.000000 1.000000
vn 1.000000 0.000000 0.000000
vn 1.000000 0.000000 0.000000
vn 1.000000 0.000000 0.000000
vn 1.000000 0.000000 0.000000
vn 0.000000 0.000001 -1.000000
vn 0.000000 0.000001 -1.000000
vn 0.000000 0.000001 -1.000000
vn 0.000000 0.000001 -1.000000
vn -0.500997 0.865449 0.000000
vn -0.500997 0.865449 0.000000
vn -0.500997 0.865449 0.000000
vn -0.500997 0.865449 0.000000
vn 0.000000 0.000001 1.000000
vn 0.000000 0.000001 1.000000
vn 0.000000 0.000001 1.000000
vn 0.000000 0.000001 1.000000
vn 0.500997 0.865449 0.000000
vn 0.500997 0.865449 0.000000
vn 0.500997 0.865449 0.000000
vn 0.500997 0.865449 0.000000
s off
g pCube151
usemtl initialShadingGroup
f 33/1/1 34/2/2 35/3/3 36/4/4
f 1/5/5 2/6/6 6/7/7 5/8/8
f 2/6/9 4/9/10 7/10/11 6/7/12
f 4/9/13 3/11/14 8/12/15 7/10/16
f 3/11/17 1/5/18 5/8/19 8/12/20
f 5/8/21 6/7/22 10/13/23 9/14/24
f 6/7/25 7/10/26 11/15/27 10/13/28
f 7/10/29 8/12/30 12/16/31 11/15/32
f 8/12/33 5/8/34 9/14/35 12/16/36
f 9/14/37 10/13/38 14/17/39 13/18/40
f 10/13/41 11/15/42 15/19/43 14/17/44
f 11/15/45 12/16/46 16/20/47 15/19/48
f 12/16/49 9/14/50 13/18/51 16/20/52
f 13/18/53 14/17/54 18/21/55 17/22/56
f 14/17/57 15/19/58 19/23/59 18/21/60
f 15/19/61 16/20/62 20/24/63 19/23/64
f 16/20/65 13/18/66 17/22/67 20/24/68
f 17/22/69 18/21/70 22/25/71 21/26/72
f 18/21/73 19/23/74 23/27/75 22/25/76
f 19/23/77 20/24/78 24/28/79 23/27/80
f 20/24/81 17/22/82 21/26/83 24/28/84
f 21/26/85 22/25/86 26/29/87 25/30/88
f 22/25/89 23/27/90 27/31/91 26/29/92
f 23/27/93 24/28/94 28/32/95 27/31/96
f 24/28/97 21/26/98 25/30/99 28/32/100
f 25/30/101 26/29/102 30/33/103 29/34/104
f 26/29/105 27/31/106 31/35/107 30/33/108
f 27/31/109 28/32/110 32/36/111 31/35/112
f 28/32/113 25/30/114 29/34/115 32/36/116
f 29/34/117 30/33/118 34/2/119 33/1/120
f 30/33/121 31/35/122 35/3/123 34/2/124
f 31/35/125 32/36/126 36/4/127 35/3/128
f 32/36/129 29/34/130 33/1/131 36/4/132
