# This file uses centimeters as units for non-parametric coordinates.

mtllib redcross.mtl
g default
v 0.292029 -0.415078 0.076691
v 0.409643 -0.297464 0.076691
v -0.415078 0.292029 0.076691
v -0.297464 0.409643 0.076691
v -0.415078 0.292029 -0.076691
v -0.297464 0.409643 -0.076691
v 0.292029 -0.415078 -0.076691
v 0.409643 -0.297464 -0.076691
v -0.057786 -0.057786 0.076691
v 0.052350 0.052350 0.076691
v 0.052350 0.052350 -0.076691
v -0.057786 -0.057786 -0.076691
v -0.117299 -0.005751 -0.076691
v 0.000315 0.111863 -0.076691
v 0.000315 0.111863 0.076691
v -0.117299 -0.005751 0.076691
v -0.005751 -0.117299 0.076691
v 0.111863 0.000315 0.076691
v 0.111863 0.000315 -0.076691
v -0.005751 -0.117299 -0.076691
v -0.365181 -0.365181 -0.076691
v -0.365181 -0.365181 0.076691
v -0.420955 -0.309407 0.076691
v -0.420955 -0.309407 -0.076691
v -0.309407 -0.420955 -0.076691
v -0.309407 -0.420955 0.076691
v 0.338030 0.338030 0.076691
v 0.338030 0.338030 -0.076691
v 0.282256 0.393804 -0.076691
v 0.282256 0.393804 0.076691
v 0.393804 0.282256 0.076691
v 0.393804 0.282256 -0.076691
vt 0.674181 0.539422
vt 0.674181 0.389554
vt 0.686002 0.389554
vt 0.686002 0.539422
vt 0.662360 0.539422
vt 0.662360 0.389554
vt 0.644404 0.539422
vt 0.644404 0.389554
vt 0.656225 0.389554
vt 0.656225 0.539422
vt 0.632583 0.539422
vt 0.632583 0.389554
vt 0.563334 0.568971
vt 0.563334 0.419104
vt 0.626447 0.419104
vt 0.626447 0.568971
vt 0.494086 0.568971
vt 0.494086 0.419104
vt 0.557199 0.419104
vt 0.557199 0.568971
vt 0.424838 0.568971
vt 0.424838 0.419104
vt 0.487951 0.419104
vt 0.487951 0.568971
vt 0.355590 0.568971
vt 0.355590 0.419104
vt 0.418703 0.419104
vt 0.418703 0.568971
vt 0.848140 0.549597
vt 0.848140 0.389554
vt 0.998008 0.389554
vt 0.998008 0.549597
vt 0.692137 0.549597
vt 0.692137 0.389554
vt 0.842005 0.389554
vt 0.842005 0.549597
vt 0.315968 0.001914
vt 0.465836 0.001914
vt 0.465836 0.415112
vt 0.315968 0.415112
vt 0.473833 0.001914
vt 0.623701 0.001914
vt 0.623701 0.415112
vt 0.473833 0.415112
vt 0.781566 0.385563
vt 0.631699 0.385563
vt 0.631699 0.001914
vt 0.781566 0.001914
vt 0.939431 0.385563
vt 0.789564 0.385563
vt 0.789564 0.001914
vt 0.939431 0.001914
vt 0.076926 0.540518
vt 0.076926 0.390650
vt 0.088747 0.385563
vt 0.088747 0.545605
vt 0.065105 0.545605
vt 0.065105 0.385563
vt 0.076926 0.001914
vt 0.088747 0.001914
vt 0.151860 0.385563
vt 0.151860 0.545605
vt 0.088747 0.958804
vt 0.076926 0.958804
vt 0.001992 0.545605
vt 0.001992 0.385563
vt 0.065105 0.001914
vt 0.065105 0.958804
vt 0.221216 0.545606
vt 0.221216 0.385563
vt 0.233037 0.390650
vt 0.233037 0.540518
vt 0.158103 0.545606
vt 0.158103 0.385563
vt 0.221216 0.001914
vt 0.233037 0.001914
vt 0.244858 0.385563
vt 0.244858 0.545606
vt 0.233037 0.958804
vt 0.221216 0.958804
vt 0.244858 0.001914
vt 0.307971 0.385563
vt 0.307971 0.545606
vt 0.244858 0.958804
vn 0.000000 0.000000 1.000000
vn 0.000000 0.000000 1.000000
vn 0.000000 0.000000 1.000000
vn 0.000000 0.000000 1.000000
vn -0.707107 0.707107 0.000000
vn -0.707107 0.707107 0.000000
vn -0.707107 0.707107 0.000000
vn -0.707107 0.707107 0.000000
vn 0.000000 0.000000 -1.000000
vn 0.000000 0.000000 -1.000000
vn 0.000000 0.000000 -1.000000
vn 0.000000 0.000000 -1.000000
vn 0.707107 -0.707107 0.000000
vn 0.707107 -0.707107 0.000000
vn 0.707107 -0.707107 0.000000
vn 0.707107 -0.707107 0.000000
vn 0.707107 0.707107 0.000000
vn 0.707107 0.707107 0.000000
vn 0.707107 0.707107 0.000000
vn 0.707107 0.707107 0.000000
vn -0.707107 -0.707107 0.000000
vn -0.707107 -0.707107 0.000000
vn -0.707107 -0.707107 0.000000
vn -0.707107 -0.707107 0.000000
vn 0.000000 0.000000 1.000000
vn 0.000000 0.000000 1.000000
vn 0.707107 0.707107 0.000000
vn 0.707107 0.707107 0.000000
vn 0.000000 0.000000 -1.000000
vn 0.000000 0.000000 -1.000000
vn -0.707107 -0.707107 0.000000
vn -0.707107 -0.707107 0.000000
vn 0.000000 0.000000 -1.000000
vn 0.000000 0.000000 -1.000000
vn 0.707107 0.707107 0.000000
vn 0.707107 0.707107 0.000000
vn 0.707107 0.707107 0.000000
vn 0.707107 0.707107 0.000000
vn 0.000000 0.000000 1.000000
vn 0.000000 0.000000 1.000000
vn -0.707107 -0.707107 0.000000
vn -0.707107 -0.707107 0.000000
vn -0.707107 -0.707107 0.000000
vn -0.707107 -0.707107 0.000000
vn 0.000000 0.000000 1.000000
vn 0.000000 0.000000 1.000000
vn 0.707107 0.707107 0.000000
vn 0.707107 0.707107 0.000000
vn 0.707107 0.707107 0.000000
vn 0.707107 0.707107 0.000000
vn 0.000000 0.000000 -1.000000
vn 0.000000 0.000000 -1.000000
vn -0.707107 -0.707107 0.000000
vn -0.707107 -0.707107 0.000000
vn -0.707107 -0.707107 0.000000
vn -0.707107 -0.707107 0.000000
vn -0.000000 0.000000 1.000000
vn -0.000000 0.000000 1.000000
vn -0.000000 0.000000 1.000000
vn -0.000000 0.000000 1.000000
vn -0.707107 0.707107 0.000000
vn -0.707107 0.707107 0.000000
vn -0.707107 0.707107 0.000000
vn -0.707107 0.707107 0.000000
vn -0.000000 0.000000 -1.000000
vn -0.000000 0.000000 -1.000000
vn -0.000000 0.000000 -1.000000
vn -0.000000 0.000000 -1.000000
vn 0.707107 -0.707107 0.000000
vn 0.707107 -0.707107 0.000000
vn 0.707107 -0.707107 0.000000
vn 0.707107 -0.707107 0.000000
vn 0.000000 0.000000 1.000000
vn 0.000000 0.000000 1.000000
vn 0.000000 0.000000 1.000000
vn 0.000000 0.000000 1.000000
vn -0.000000 0.000000 -1.000000
vn -0.000000 0.000000 -1.000000
vn -0.000000 0.000000 -1.000000
vn -0.000000 0.000000 -1.000000
vn 0.000000 0.000000 -1.000000
vn 0.000000 0.000000 -1.000000
vn 0.000000 0.000000 -1.000000
vn 0.000000 0.000000 -1.000000
vn -0.707107 0.707107 0.000000
vn -0.707107 0.707107 0.000000
vn -0.707107 0.707107 0.000000
vn -0.707107 0.707107 0.000000
vn 0.000000 0.000000 1.000000
vn 0.000000 0.000000 1.000000
vn 0.000000 0.000000 1.000000
vn 0.000000 0.000000 1.000000
vn 0.707107 -0.707107 0.000000
vn 0.707107 -0.707107 0.000000
vn 0.707107 -0.707107 0.000000
vn 0.707107 -0.707107 0.000000
vn 0.000000 0.000000 -1.000000
vn 0.000000 0.000000 -1.000000
vn 0.000000 0.000000 -1.000000
vn 0.000000 0.000000 -1.000000
vn -0.000000 0.000000 1.000000
vn -0.000000 0.000000 1.000000
vn -0.000000 0.000000 1.000000
vn -0.000000 0.000000 1.000000
s 1
g pCube122
usemtl lambert2SG
f 9/53/1 10/54/2 15/55/3 16/56/4
s off
f 3/29/5 4/30/6 6/31/7 5/32/8
s 2
f 13/69/9 14/70/10 11/71/11 12/72/12
s off
f 7/33/13 8/34/14 2/35/15 1/36/16
s 3
f 27/1/17 28/2/18 29/3/19 30/4/20
s 4
f 21/7/21 22/8/22 23/9/23 24/10/24
s 1
f 17/57/25 18/58/26 10/54/2 9/53/1
s 3
f 31/5/27 32/6/28 28/2/18 27/1/17
s 2
f 12/72/12 11/71/11 19/77/29 20/78/30
s 4
f 25/11/31 26/12/32 22/8/22 21/7/21
s 2
f 5/73/33 6/74/34 14/70/10 13/69/9
s off
f 15/13/35 14/14/36 6/15/37 4/16/38
s 1
f 16/56/4 15/55/3 4/61/39 3/62/40
s off
f 13/17/41 16/18/42 3/19/43 5/20/44
s 1
f 1/65/45 2/66/46 18/58/26 17/57/25
s off
f 2/21/47 8/22/48 19/23/49 18/24/50
s 2
f 20/78/30 19/77/29 8/82/51 7/83/52
s off
f 7/25/53 1/26/54 17/27/55 20/28/56
f 9/53/57 16/56/58 23/63/59 22/64/60
f 16/37/61 13/38/62 24/39/63 23/40/64
f 13/69/65 12/72/66 21/79/67 24/80/68
f 20/41/69 17/42/70 26/43/71 25/44/72
f 17/57/73 9/53/74 22/64/75 26/68/76
f 12/72/77 20/78/78 25/84/79 21/79/80
f 11/71/81 14/70/82 29/75/83 28/76/84
f 14/45/85 15/46/86 30/47/87 29/48/88
f 15/55/89 10/54/90 27/59/91 30/60/92
f 18/49/93 19/50/94 32/51/95 31/52/96
f 19/77/97 11/71/98 28/76/99 32/81/100
f 10/54/101 18/58/102 31/67/103 27/59/104
