# Wavefront Obj file
# 
# verts: 15 uv-s: 15
mtllib Block_down.mtl

g pCube9

v -0.500000 -0.500000 0.500000
v 0.500000 -0.500000 0.500000
v -0.500000 0.500000 0.500000
v -0.500000 0.500000 -0.500000
v 0.500000 -0.500000 -0.500000
v 0.500000 -1.499961 0.500000
v -0.157681 0.047069 0.500000
v -0.157681 0.047069 -0.500000
v -0.157681 -0.842305 0.500000
v 0.062325 -0.195811 0.500000
v 0.062325 -0.195811 -0.500000
v 0.062325 -1.062304 0.500000
v 0.301191 -0.395227 0.500000
v 0.301191 -0.395227 -0.500000
v 0.301191 -1.301159 0.500000
# 15 positions

vt 0.720529 0.360207
vt 0.979717 0.371194
vt 0.646339 0.077119
vt 0.437063 0.075383
vt 0.719201 0.814307
vt 0.970402 0.819016
vt 0.299619 0.069083
vt 0.570017 0.356936
vt 0.574373 0.813665
vt 0.149171 0.059337
vt 0.426134 0.364165
vt 0.437319 0.816686
vt 0.323781 0.379789
vt 0.022302 0.053676
vt 0.337545 0.821005
# 15 texture coordinates

vn 0.000000 0.000000 1.000000
vn 0.000000 0.000000 1.000000
vn 0.000000 0.000000 1.000000
vn 0.000000 0.000000 1.000000
vn 0.797779 0.602950 0.000000
vn 0.770221 0.637777 0.000000
vn 0.770221 0.637777 0.000000
vn 0.797779 0.602950 0.000000
vn 0.000000 0.000000 1.000000
vn 0.000000 0.000000 1.000000
vn 0.692683 0.721242 0.000000
vn 0.692683 0.721242 0.000000
vn 0.000000 0.000000 1.000000
vn 0.000000 0.000000 1.000000
vn 0.556629 0.830761 0.000000
vn 0.556629 0.830761 0.000000
vn 0.000000 0.000000 1.000000
vn 0.000000 0.000000 1.000000
vn 0.466223 0.884667 0.000000
vn 0.466223 0.884667 0.000000
# 20 normals

usemtl initialShadingGroup
s 1
f 7/1/1 3/2/2 1/3/3 9/4/4
f 12/7/9 10/8/10 7/1/1 9/4/4
f 15/10/13 13/11/14 10/8/10 12/7/9
f 2/13/17 13/11/14 15/10/13 6/14/18
s 2
f 3/2/5 7/1/6 8/5/7 4/6/8
f 8/5/7 7/1/6 10/8/11 11/9/12
f 11/9/12 10/8/11 13/11/15 14/12/16
f 14/12/16 13/11/15 2/13/19 5/15/20

# 8 faces
