# This file uses centimeters as units for non-parametric coordinates.

mtllib Lighter.mtl
g default
v 0.029851 1.421031 0.100179
v -0.022645 1.421031 0.100179
v 0.029851 1.460117 0.112741
v -0.022645 1.460117 0.112741
v 0.029624 1.418679 0.241094
v -0.022418 1.418679 0.241094
v 0.029624 1.379931 0.228641
v -0.022418 1.379931 0.228641
v 0.038123 1.440574 0.106460
v -0.030917 1.440574 0.106460
v -0.030917 1.399305 0.234868
v 0.038123 1.399305 0.234868
v 0.003603 1.423150 0.093191
v 0.003603 1.378677 0.228648
v 0.003603 1.421542 0.242216
v 0.003603 1.465482 0.107151
v 0.003603 1.443245 0.099803
v 0.015314 1.407999 0.238336
v 0.003603 1.411072 0.239245
v 0.015314 1.389179 0.232773
v 0.003603 1.386105 0.231864
v 0.019139 1.398589 0.235554
v -0.008107 1.407999 0.238336
v -0.011932 1.398589 0.235554
v -0.008107 1.389179 0.232773
v -0.020468 0.496208 0.401587
v 0.003581 0.496208 0.411549
v 0.027631 0.496208 0.401587
v 0.037592 0.496208 0.377538
v 0.027631 0.496208 0.353489
v 0.003581 0.496208 0.343527
v -0.020468 0.496208 0.353489
v -0.030430 0.496208 0.377538
v -0.020468 0.531683 0.401587
v 0.003581 0.531683 0.411549
v 0.027631 0.531683 0.401587
v 0.037592 0.531683 0.377538
v 0.027631 0.531683 0.353489
v 0.003581 0.531683 0.343527
v -0.020468 0.531683 0.353489
v -0.030430 0.531683 0.377538
v -0.013380 0.537205 0.394499
v 0.003581 0.537205 0.401524
v 0.020542 0.537205 0.394499
v 0.027567 0.537205 0.377538
v 0.020542 0.537205 0.360577
v 0.003581 0.537205 0.353552
v -0.013380 0.537205 0.360577
v -0.020405 0.537205 0.377538
v -0.013380 0.880882 0.394499
v 0.003581 0.880882 0.401524
v 0.020542 0.880882 0.394499
v 0.027567 0.880882 0.377538
v 0.020542 0.880882 0.360577
v 0.003581 0.880882 0.353552
v -0.013380 0.880882 0.360577
v -0.020405 0.880882 0.377538
v -0.011096 0.884712 0.392215
v 0.003581 0.884712 0.398294
v 0.018258 0.884712 0.392215
v 0.024337 0.884712 0.377538
v 0.018258 0.884712 0.362861
v 0.003581 0.884712 0.356782
v -0.011096 0.884712 0.362861
v -0.017175 0.884712 0.377538
v -0.007008 0.886328 0.388128
v 0.003581 0.886328 0.392514
v 0.014171 0.886328 0.388128
v 0.018557 0.886328 0.377538
v 0.014171 0.886328 0.366948
v 0.003581 0.886328 0.362562
v -0.007008 0.886328 0.366948
v -0.011395 0.886328 0.377538
v -0.007008 1.316669 0.388128
v 0.003581 1.316669 0.392514
v 0.014171 1.316669 0.388128
v 0.018557 1.316669 0.377538
v 0.014171 1.316669 0.366948
v 0.003581 1.316669 0.362562
v -0.007008 1.316669 0.366948
v -0.011395 1.316669 0.377538
v -0.007008 1.335471 0.385210
v 0.003581 1.337036 0.389308
v 0.014171 1.335471 0.385210
v 0.018557 1.331692 0.375318
v 0.014171 1.327914 0.365425
v 0.003581 1.326348 0.361328
v -0.007008 1.327914 0.365425
v -0.011395 1.331692 0.375318
v -0.007008 1.350667 0.375889
v 0.003581 1.353595 0.379155
v 0.014171 1.350667 0.375889
v 0.018557 1.343598 0.368004
v 0.014171 1.336528 0.360120
v 0.003581 1.333601 0.356854
v -0.007008 1.336528 0.360120
v -0.011395 1.343598 0.368004
v -0.007008 1.362570 0.360178
v 0.003581 1.366656 0.361771
v 0.014171 1.362570 0.360178
v 0.018557 1.352703 0.356332
v 0.014171 1.342837 0.352485
v 0.003581 1.338750 0.350893
v -0.007008 1.342837 0.352485
v -0.011395 1.352703 0.356332
v -0.007826 1.380395 0.318906
v 0.003581 1.384984 0.320029
v 0.014988 1.380395 0.318906
v 0.019713 1.369315 0.316193
v 0.014988 1.358236 0.313481
v 0.003581 1.353646 0.312358
v -0.007826 1.358236 0.313481
v -0.012550 1.369315 0.316193
v -0.005480 1.378117 0.318348
v 0.003581 1.381762 0.319241
v 0.012643 1.378117 0.318348
v 0.016396 1.369315 0.316193
v 0.012643 1.360513 0.314039
v 0.003581 1.356868 0.313146
v -0.005480 1.360513 0.314039
v -0.009234 1.369315 0.316193
v -0.005278 1.402367 0.250207
v 0.003581 1.405901 0.251195
v 0.012441 1.402367 0.250207
v 0.016110 1.393834 0.247822
v 0.012441 1.385302 0.245436
v 0.003581 1.381768 0.244448
v -0.005278 1.385302 0.245436
v -0.008948 1.393834 0.247822
v 0.003603 1.417556 0.109092
v 0.003603 1.381430 0.219378
v -0.018682 1.382830 0.219393
v -0.018876 1.418028 0.109375
v 0.025888 1.382830 0.219393
v 0.026083 1.418028 0.109375
v 0.003603 1.420633 0.110745
v 0.003603 1.385289 0.220716
v -0.018682 1.385907 0.221046
v -0.018876 1.421105 0.111029
v 0.025888 1.385907 0.221046
v 0.026083 1.421105 0.111029
vt 0.993053 0.607357
vt 0.963561 0.620303
vt 0.960472 0.596214
vt 0.976118 0.596559
vt 0.991958 0.487454
vt 0.975368 0.495921
vt 0.511811 0.045280
vt 0.659232 0.045278
vt 0.659392 0.073733
vt 0.511971 0.073978
vt 0.959055 0.497463
vt 0.957986 0.811032
vt 0.960184 0.702052
vt 0.977183 0.701470
vt 0.976246 0.812738
vt 0.939848 0.612424
vt 0.945087 0.598991
vt 0.942319 0.496494
vt 0.940044 0.811886
vt 0.942756 0.698795
vt 0.659391 0.016824
vt 0.511971 0.016583
vt 0.995737 0.689350
vt 0.994755 0.821718
vt 0.963186 0.675306
vt 0.937065 0.683939
vt 0.983991 0.830953
vt 0.971402 0.827335
vt 0.928387 0.824511
vt 0.942418 0.824338
vt 0.932540 0.829122
vt 0.956717 0.825449
vt 0.957757 0.484485
vt 0.970792 0.482785
vt 0.944889 0.485186
vt 0.932221 0.484475
vt 0.936237 0.480471
vt 0.981949 0.479270
vt 0.701252 0.028664
vt 0.705242 0.009212
vt 0.733005 0.017396
vt 0.728744 0.034333
vt 0.719279 0.152803
vt 0.712320 0.134894
vt 0.737880 0.124331
vt 0.745370 0.141197
vt 0.706736 0.117010
vt 0.733840 0.109065
vt 0.703106 0.099516
vt 0.731078 0.094268
vt 0.700843 0.082306
vt 0.729164 0.079540
vt 0.699628 0.065037
vt 0.727983 0.064755
vt 0.699561 0.047269
vt 0.727643 0.049795
vt 0.738875 0.025374
vt 0.737274 0.038222
vt 0.746466 0.119635
vt 0.750758 0.131676
vt 0.743143 0.106614
vt 0.740585 0.093104
vt 0.738715 0.079348
vt 0.737512 0.065508
vt 0.736997 0.051736
vt 0.921631 0.012036
vt 0.918535 0.023697
vt 0.926472 0.091674
vt 0.932227 0.102392
vt 0.922668 0.080584
vt 0.920116 0.069377
vt 0.918444 0.058109
vt 0.917531 0.046764
vt 0.917454 0.035303
vt 0.927795 0.019356
vt 0.924593 0.027016
vt 0.931876 0.087146
vt 0.937160 0.094090
vt 0.928673 0.077955
vt 0.926476 0.067937
vt 0.924951 0.057569
vt 0.924012 0.047100
vt 0.923761 0.036768
vt 0.929358 0.021959
vt 0.926679 0.028325
vt 0.933681 0.085402
vt 0.938045 0.091075
vt 0.930786 0.076945
vt 0.928718 0.067382
vt 0.927241 0.057342
vt 0.926306 0.047195
vt 0.926009 0.037314
vt 0.970284 0.967484
vt 0.970537 0.981210
vt 0.457773 0.990003
vt 0.456780 0.976258
vt 0.968771 0.871701
vt 0.968975 0.885445
vt 0.455327 0.893576
vt 0.455904 0.879825
vt 0.969167 0.899171
vt 0.453946 0.907309
vt 0.969356 0.912859
vt 0.452474 0.921075
vt 0.969557 0.926509
vt 0.451979 0.934940
vt 0.969781 0.940142
vt 0.452990 0.948796
vt 0.970026 0.953794
vt 0.454950 0.962540
vt 0.438288 0.993296
vt 0.438247 0.979513
vt 0.436545 0.890918
vt 0.436189 0.877146
vt 0.436726 0.905027
vt 0.436745 0.919793
vt 0.436805 0.935204
vt 0.437390 0.950614
vt 0.437944 0.965387
vt 0.419057 0.993544
vt 0.420546 0.979755
vt 0.418662 0.891287
vt 0.416720 0.877556
vt 0.420761 0.905077
vt 0.422798 0.919709
vt 0.423817 0.935438
vt 0.423514 0.951187
vt 0.422110 0.965892
vt 0.397048 0.992117
vt 0.400726 0.978347
vt 0.398638 0.893499
vt 0.394409 0.879892
vt 0.404183 0.907040
vt 0.409577 0.920929
vt 0.412122 0.935654
vt 0.410314 0.950457
vt 0.405619 0.964565
vt 0.343839 0.984417
vt 0.350470 0.972082
vt 0.348434 0.902649
vt 0.341227 0.890620
vt 0.354425 0.914455
vt 0.359192 0.925844
vt 0.361579 0.937046
vt 0.359853 0.948382
vt 0.355781 0.960006
vt 0.341561 0.980775
vt 0.347481 0.970279
vt 0.345418 0.904556
vt 0.338997 0.894435
vt 0.351044 0.915671
vt 0.355552 0.926518
vt 0.357736 0.937071
vt 0.356200 0.947742
vt 0.352393 0.958827
vt 0.220450 0.879808
vt 0.233109 0.880238
vt 0.233412 0.973123
vt 0.220842 0.973602
vt 0.132336 0.880215
vt 0.144995 0.879792
vt 0.144553 0.973591
vt 0.131984 0.973097
vt 0.157554 0.878638
vt 0.157231 0.973279
vt 0.170104 0.877442
vt 0.169969 0.972513
vt 0.182722 0.876931
vt 0.182701 0.971999
vt 0.195339 0.877446
vt 0.195431 0.972509
vt 0.207890 0.878647
vt 0.208167 0.973278
vt 0.236463 0.989863
vt 0.221384 0.991519
vt 0.144013 0.991522
vt 0.128946 0.989830
vt 0.156725 0.989835
vt 0.168793 0.987365
vt 0.182684 0.985512
vt 0.196588 0.987350
vt 0.208667 0.989818
vt 0.939321 0.503505
vt 0.926974 0.489914
vt 0.941849 0.592200
vt 0.933181 0.606800
vt 0.922741 0.818415
vt 0.936725 0.803879
vt 0.939173 0.706333
vt 0.929671 0.690080
vt 0.936665 0.503965
vt 0.924757 0.492136
vt 0.939193 0.591219
vt 0.931067 0.604924
vt 0.920357 0.815908
vt 0.933806 0.803337
vt 0.936240 0.707397
vt 0.927316 0.692126
vn 0.000000 0.351894 -0.936040
vn -0.000000 0.309594 -0.950869
vn -0.230170 0.300422 -0.925618
vn -0.228929 0.342548 -0.911182
vn -0.000000 0.951250 0.308422
vn -0.000000 0.951250 0.308423
vn -0.122443 0.944092 0.306102
vn -0.122443 0.944092 0.306102
vn -0.000000 -0.952248 -0.305326
vn -0.000000 -0.952248 -0.305326
vn -0.027350 -0.951892 -0.305212
vn -0.027350 -0.951892 -0.305212
vn -0.999999 -0.000341 0.001061
vn -0.999999 -0.000341 0.001061
vn -0.925165 0.361045 0.117119
vn -0.925165 0.361045 0.117119
vn 0.999999 -0.000341 0.001061
vn 0.999999 -0.000341 0.001061
vn 0.925164 0.361046 0.117119
vn 0.925164 0.361046 0.117119
vn -0.000000 0.264178 -0.964474
vn -0.230963 0.257035 -0.938397
vn -0.925163 -0.361680 -0.115158
vn -0.925163 -0.361680 -0.115158
vn 0.925162 -0.361681 -0.115158
vn 0.925162 -0.361681 -0.115158
vn 0.027350 -0.951892 -0.305212
vn 0.027350 -0.951892 -0.305212
vn 0.122443 0.944092 0.306102
vn 0.122443 0.944092 0.306102
vn 0.230171 0.300423 -0.925617
vn 0.228930 0.342549 -0.911181
vn 0.230964 0.257036 -0.938397
vn 0.009728 -0.267582 0.963486
vn 0.009728 -0.267582 0.963486
vn 0.009728 -0.267582 0.963486
vn 0.009728 -0.267582 0.963486
vn 0.022356 -0.387009 0.921805
vn 0.022356 -0.387009 0.921805
vn 0.022356 -0.387009 0.921805
vn 0.022356 -0.387009 0.921805
vn 0.037522 -0.283795 0.958151
vn 0.037522 -0.283795 0.958151
vn 0.037522 -0.283795 0.958151
vn 0.037522 -0.283795 0.958151
vn -0.037522 -0.283795 0.958151
vn -0.037522 -0.283795 0.958151
vn -0.037522 -0.283795 0.958151
vn -0.037522 -0.283795 0.958151
vn -0.055006 -0.319598 0.945955
vn -0.055006 -0.319598 0.945955
vn -0.055006 -0.319598 0.945955
vn -0.055006 -0.319598 0.945955
vn 0.055006 -0.319598 0.945955
vn 0.055006 -0.319598 0.945955
vn 0.055006 -0.319598 0.945955
vn 0.055006 -0.319598 0.945955
vn -0.022357 -0.387013 0.921803
vn -0.022357 -0.387013 0.921803
vn -0.022357 -0.387013 0.921803
vn -0.022357 -0.387013 0.921803
vn -0.009728 -0.267579 0.963487
vn -0.009728 -0.267579 0.963487
vn -0.009728 -0.267578 0.963487
vn -0.009728 -0.267578 0.963487
vn -0.707107 0.000000 0.707106
vn -0.000000 0.000000 1.000000
vn -0.000000 0.000000 1.000000
vn -0.707107 0.000000 0.707106
vn 0.707107 0.000000 0.707106
vn 0.707107 0.000000 0.707106
vn 1.000000 0.000000 0.000000
vn 1.000000 0.000000 0.000000
vn 0.707110 0.000000 -0.707104
vn 0.707110 0.000000 -0.707104
vn 0.000000 0.000000 -1.000000
vn 0.000000 0.000000 -1.000000
vn -0.707110 0.000000 -0.707104
vn -0.707110 0.000000 -0.707104
vn -1.000000 0.000000 -0.000000
vn -1.000000 0.000000 -0.000000
vn -0.341144 0.875922 0.341146
vn -0.000000 0.875924 0.482450
vn -0.000000 0.875924 0.482450
vn -0.341144 0.875922 0.341146
vn 0.341144 0.875922 0.341147
vn 0.341145 0.875922 0.341147
vn 0.482454 0.875921 0.000000
vn 0.482454 0.875921 0.000001
vn 0.341144 0.875922 -0.341147
vn 0.341146 0.875922 -0.341145
vn -0.000000 0.875924 -0.482449
vn -0.000000 0.875924 -0.482449
vn -0.341144 0.875923 -0.341146
vn -0.341144 0.875923 -0.341145
vn -0.482454 0.875921 -0.000001
vn -0.482454 0.875921 -0.000000
vn -0.707103 0.000000 0.707111
vn -0.000000 0.000000 1.000000
vn -0.000000 0.000000 1.000000
vn -0.707103 0.000000 0.707111
vn 0.707103 0.000000 0.707111
vn 0.707103 0.000000 0.707111
vn 1.000000 0.000000 0.000000
vn 1.000000 0.000000 0.000000
vn 0.707104 0.000000 -0.707109
vn 0.707104 0.000000 -0.707109
vn 0.000000 0.000000 -1.000000
vn 0.000000 0.000000 -1.000000
vn -0.707104 0.000000 -0.707109
vn -0.707104 0.000000 -0.707109
vn -1.000000 0.000000 -0.000000
vn -1.000000 0.000000 -0.000000
vn -0.540548 0.644684 0.540546
vn -0.000000 0.644681 0.764452
vn 0.000000 0.644681 0.764452
vn -0.540546 0.644684 0.540548
vn 0.540548 0.644685 0.540545
vn 0.540546 0.644685 0.540547
vn 0.764445 0.644689 -0.000000
vn 0.764445 0.644689 0.000000
vn 0.540555 0.644683 -0.540541
vn 0.540549 0.644683 -0.540547
vn 0.000000 0.644679 -0.764454
vn 0.000000 0.644679 -0.764454
vn -0.540554 0.644681 -0.540544
vn -0.540549 0.644681 -0.540549
vn -0.764446 0.644688 -0.000002
vn -0.764446 0.644688 -0.000001
vn -0.190330 0.963092 0.190340
vn -0.000000 0.963090 0.269178
vn -0.000000 0.963090 0.269178
vn -0.190324 0.963092 0.190345
vn 0.190330 0.963094 0.190329
vn 0.190326 0.963094 0.190334
vn 0.269166 0.963094 0.000003
vn 0.269166 0.963094 0.000003
vn 0.190329 0.963095 -0.190321
vn 0.190326 0.963095 -0.190324
vn -0.000000 0.963092 -0.269174
vn 0.000000 0.963092 -0.269174
vn -0.190328 0.963093 -0.190336
vn -0.190325 0.963093 -0.190339
vn -0.269166 0.963094 0.000005
vn -0.269166 0.963094 0.000005
vn -0.707100 0.000000 0.707114
vn -0.000000 0.000000 1.000000
vn -0.000000 0.006557 0.999979
vn -0.705404 0.004623 0.708790
vn 0.707100 0.000000 0.707113
vn 0.705405 0.004623 0.708790
vn 1.000000 0.000000 0.000000
vn 0.999995 0.000502 0.002962
vn 0.707104 0.000000 -0.707110
vn 0.708360 -0.002452 -0.705847
vn -0.000000 0.000000 -1.000000
vn -0.000000 -0.003221 -0.999995
vn -0.707104 0.000000 -0.707110
vn -0.708360 -0.002452 -0.705847
vn -1.000000 0.000000 -0.000000
vn -0.999995 0.000502 0.002962
vn -0.000000 0.340045 0.940409
vn -0.659662 0.254595 0.707126
vn 0.659664 0.254595 0.707125
vn 0.994813 0.034487 0.095700
vn 0.765133 -0.209442 -0.608856
vn -0.000001 -0.321396 -0.946945
vn -0.765133 -0.209442 -0.608856
vn -0.994813 0.034487 0.095700
vn -0.000000 0.679506 0.733670
vn -0.655384 0.512624 0.554697
vn 0.655383 0.512623 0.554698
vn 0.994502 0.072300 0.075749
vn 0.762406 -0.424124 -0.488729
vn 0.000000 -0.649330 -0.760507
vn -0.762405 -0.424123 -0.488731
vn -0.994502 0.072300 0.075748
vn -0.000000 0.886357 0.463002
vn -0.685399 0.641938 0.343719
vn 0.685400 0.641938 0.343719
vn 0.998943 0.023170 0.039694
vn 0.724114 -0.630177 -0.280242
vn 0.000000 -0.909711 -0.415243
vn -0.724114 -0.630178 -0.280242
vn -0.998943 0.023170 0.039694
vn 0.000000 0.915344 0.402672
vn -0.681195 0.667066 0.301656
vn 0.681196 0.667065 0.301656
vn 0.998573 0.033227 0.041810
vn 0.727630 -0.643074 -0.238766
vn -0.000000 -0.932898 -0.360140
vn -0.727630 -0.643075 -0.238766
vn -0.998573 0.033226 0.041811
vn 0.000015 0.237786 -0.971318
vn 0.000015 0.237786 -0.971318
vn 0.000015 0.237786 -0.971318
vn 0.000015 0.237786 -0.971318
vn -0.000017 0.237783 -0.971318
vn -0.000017 0.237783 -0.971318
vn -0.000017 0.237783 -0.971318
vn -0.000017 0.237783 -0.971318
vn -0.000014 0.237781 -0.971319
vn -0.000014 0.237781 -0.971319
vn -0.000014 0.237781 -0.971319
vn -0.000014 0.237781 -0.971319
vn 0.000000 0.237773 -0.971321
vn 0.000000 0.237773 -0.971321
vn 0.000000 0.237773 -0.971321
vn 0.000000 0.237773 -0.971321
vn -0.000002 0.237775 -0.971320
vn -0.000002 0.237775 -0.971320
vn -0.000002 0.237775 -0.971320
vn -0.000002 0.237775 -0.971320
vn 0.000002 0.237782 -0.971318
vn 0.000002 0.237782 -0.971318
vn 0.000002 0.237782 -0.971318
vn 0.000002 0.237782 -0.971318
vn 0.000000 0.237777 -0.971320
vn 0.000000 0.237777 -0.971320
vn 0.000000 0.237777 -0.971320
vn 0.000000 0.237777 -0.971320
vn 0.000015 0.237783 -0.971318
vn 0.000015 0.237783 -0.971318
vn 0.000015 0.237783 -0.971318
vn 0.000015 0.237783 -0.971318
vn -0.718686 0.655759 0.231240
vn -0.000000 0.942481 0.334261
vn -0.000057 0.935002 0.354643
vn -0.691045 0.670271 0.270544
vn 0.718686 0.655758 0.231240
vn 0.690951 0.670212 0.270929
vn 0.999637 -0.023814 -0.012637
vn 0.999263 -0.000725 0.038392
vn 0.692056 -0.678231 -0.247105
vn 0.702280 -0.676596 -0.221406
vn 0.000000 -0.940123 -0.340835
vn -0.000055 -0.944019 -0.329892
vn -0.692056 -0.678231 -0.247106
vn -0.702344 -0.676429 -0.221713
vn -0.999637 -0.023813 -0.012637
vn -0.999284 -0.000565 0.037834
vn 0.000347 0.895344 0.445375
vn -0.667641 0.617255 0.416235
vn 0.667778 0.615836 0.418113
vn 0.971873 -0.048079 0.230545
vn 0.700428 -0.708091 -0.089484
vn 0.000336 -0.961436 -0.275029
vn -0.700143 -0.708049 -0.092020
vn -0.972614 -0.047214 0.227582
vn 0.000000 -0.953442 -0.301576
vn -0.052372 -0.952134 -0.301160
vn -0.052372 -0.952134 -0.301160
vn 0.000000 -0.953442 -0.301576
vn -0.015321 -0.952339 -0.304657
vn -0.015321 -0.952339 -0.304657
vn -0.015321 -0.952339 -0.304657
vn -0.015321 -0.952339 -0.304657
vn -0.016019 -0.946651 -0.321863
vn -0.000000 -0.946771 -0.321908
vn -0.000000 -0.946771 -0.321908
vn -0.016019 -0.946651 -0.321863
vn 0.052372 -0.952133 -0.301164
vn 0.052372 -0.952133 -0.301164
vn 0.016019 -0.946648 -0.321871
vn 0.016019 -0.946648 -0.321871
vn 0.015321 -0.952339 -0.304658
vn 0.015321 -0.952339 -0.304658
vn 0.015321 -0.952339 -0.304658
vn 0.015321 -0.952339 -0.304658
vn 0.010800 0.396041 -0.918169
vn 0.010800 0.396041 -0.918169
vn 0.010800 0.396041 -0.918169
vn 0.010800 0.396041 -0.918169
vn 0.999999 0.000812 -0.001511
vn 0.999999 0.000812 -0.001511
vn 0.999999 0.000812 -0.001511
vn 0.999999 0.000812 -0.001511
vn 0.001165 -0.473261 0.880922
vn 0.001165 -0.473261 0.880922
vn 0.001165 -0.473261 0.880922
vn 0.001165 -0.473261 0.880922
vn -0.010800 0.396040 -0.918170
vn -0.010800 0.396040 -0.918170
vn -0.010800 0.396040 -0.918170
vn -0.010800 0.396040 -0.918170
vn -0.001165 -0.473260 0.880922
vn -0.001165 -0.473260 0.880922
vn -0.001165 -0.473260 0.880922
vn -0.001165 -0.473260 0.880922
vn -0.999999 0.000812 -0.001511
vn -0.999999 0.000812 -0.001511
vn -0.999999 0.000812 -0.001511
vn -0.999999 0.000812 -0.001511
s 1
g pCube124
usemtl initialShadingGroup
f 16/1/1 17/2/2 10/3/3 4/4/4
s 2
f 15/5/5 16/1/6 4/4/7 6/6/8
s 3
f 136/7/9 137/8/10 138/9/11 139/10/12
s 4
f 10/3/13 11/11/14 6/6/15 4/4/16
s 5
f 12/12/17 9/13/18 3/14/19 5/15/20
s 1
f 17/2/2 13/16/21 2/17/22 10/3/3
s 4
f 2/17/23 8/18/24 11/11/14 10/3/13
s 5
f 7/19/25 1/20/26 9/13/18 12/12/17
s 3
f 140/21/27 137/8/10 136/7/9 141/22/28
s 2
f 3/14/29 16/23/6 15/24/5 5/15/30
s 1
f 9/13/31 17/25/2 16/23/1 3/14/32
f 1/20/33 13/26/21 17/25/2 9/13/31
s off
f 5/15/34 15/24/35 19/27/36 18/28/37
f 14/29/38 7/19/39 20/30/40 21/31/41
f 12/12/42 5/15/43 18/28/44 22/32/45
f 6/6/46 11/11/47 24/33/48 23/34/49
f 11/11/50 8/18/51 25/35/52 24/33/53
f 7/19/54 12/12/55 22/32/56 20/30/57
f 8/18/58 14/36/59 21/37/60 25/35/61
f 15/5/62 6/6/63 23/34/64 19/38/65
s 6
f 26/39/66 27/40/67 35/41/68 34/42/69
f 27/43/67 28/44/70 36/45/71 35/46/68
f 28/44/70 29/47/72 37/48/73 36/45/71
f 29/47/72 30/49/74 38/50/75 37/48/73
f 30/49/74 31/51/76 39/52/77 38/50/75
f 31/51/76 32/53/78 40/54/79 39/52/77
f 32/53/78 33/55/80 41/56/81 40/54/79
f 33/55/80 26/39/66 34/42/69 41/56/81
s 7
f 34/42/82 35/41/83 43/57/84 42/58/85
f 35/46/83 36/45/86 44/59/87 43/60/84
f 36/45/86 37/48/88 45/61/89 44/59/87
f 37/48/88 38/50/90 46/62/91 45/61/89
f 38/50/90 39/52/92 47/63/93 46/62/91
f 39/52/92 40/54/94 48/64/95 47/63/93
f 40/54/94 41/56/96 49/65/97 48/64/95
f 41/56/96 34/42/82 42/58/85 49/65/97
s 8
f 42/58/98 43/57/99 51/66/100 50/67/101
f 43/60/99 44/59/102 52/68/103 51/69/100
f 44/59/102 45/61/104 53/70/105 52/68/103
f 45/61/104 46/62/106 54/71/107 53/70/105
f 46/62/106 47/63/108 55/72/109 54/71/107
f 47/63/108 48/64/110 56/73/111 55/72/109
f 48/64/110 49/65/112 57/74/113 56/73/111
f 49/65/112 42/58/98 50/67/101 57/74/113
s 9
f 50/67/114 51/66/115 59/75/116 58/76/117
f 51/69/115 52/68/118 60/77/119 59/78/116
f 52/68/118 53/70/120 61/79/121 60/77/119
f 53/70/120 54/71/122 62/80/123 61/79/121
f 54/71/122 55/72/124 63/81/125 62/80/123
f 55/72/124 56/73/126 64/82/127 63/81/125
f 56/73/126 57/74/128 65/83/129 64/82/127
f 57/74/128 50/67/114 58/76/117 65/83/129
s 10
f 58/76/130 59/75/131 67/84/132 66/85/133
f 59/78/131 60/77/134 68/86/135 67/87/132
f 60/77/134 61/79/136 69/88/137 68/86/135
f 61/79/136 62/80/138 70/89/139 69/88/137
f 62/80/138 63/81/140 71/90/141 70/89/139
f 63/81/140 64/82/142 72/91/143 71/90/141
f 64/82/142 65/83/144 73/92/145 72/91/143
f 65/83/144 58/76/130 66/85/133 73/92/145
s 11
f 66/93/146 67/94/147 75/95/148 74/96/149
f 67/97/147 68/98/150 76/99/151 75/100/148
f 68/98/150 69/101/152 77/102/153 76/99/151
f 69/101/152 70/103/154 78/104/155 77/102/153
f 70/103/154 71/105/156 79/106/157 78/104/155
f 71/105/156 72/107/158 80/108/159 79/106/157
f 72/107/158 73/109/160 81/110/161 80/108/159
f 73/109/160 66/93/146 74/96/149 81/110/161
f 74/96/149 75/95/148 83/111/162 82/112/163
f 75/100/148 76/99/151 84/113/164 83/114/162
f 76/99/151 77/102/153 85/115/165 84/113/164
f 77/102/153 78/104/155 86/116/166 85/115/165
f 78/104/155 79/106/157 87/117/167 86/116/166
f 79/106/157 80/108/159 88/118/168 87/117/167
f 80/108/159 81/110/161 89/119/169 88/118/168
f 81/110/161 74/96/149 82/112/163 89/119/169
f 82/112/163 83/111/162 91/120/170 90/121/171
f 83/114/162 84/113/164 92/122/172 91/123/170
f 84/113/164 85/115/165 93/124/173 92/122/172
f 85/115/165 86/116/166 94/125/174 93/124/173
f 86/116/166 87/117/167 95/126/175 94/125/174
f 87/117/167 88/118/168 96/127/176 95/126/175
f 88/118/168 89/119/169 97/128/177 96/127/176
f 89/119/169 82/112/163 90/121/171 97/128/177
f 90/121/171 91/120/170 99/129/178 98/130/179
f 91/123/170 92/122/172 100/131/180 99/132/178
f 92/122/172 93/124/173 101/133/181 100/131/180
f 93/124/173 94/125/174 102/134/182 101/133/181
f 94/125/174 95/126/175 103/135/183 102/134/182
f 95/126/175 96/127/176 104/136/184 103/135/183
f 96/127/176 97/128/177 105/137/185 104/136/184
f 97/128/177 90/121/171 98/130/179 105/137/185
f 98/130/179 99/129/178 107/138/186 106/139/187
f 99/132/178 100/131/180 108/140/188 107/141/186
f 100/131/180 101/133/181 109/142/189 108/140/188
f 101/133/181 102/134/182 110/143/190 109/142/189
f 102/134/182 103/135/183 111/144/191 110/143/190
f 103/135/183 104/136/184 112/145/192 111/144/191
f 104/136/184 105/137/185 113/146/193 112/145/192
f 105/137/185 98/130/179 106/139/187 113/146/193
s off
f 106/139/194 107/138/195 115/147/196 114/148/197
f 107/141/198 108/140/199 116/149/200 115/150/201
f 108/140/202 109/142/203 117/151/204 116/149/205
f 109/142/206 110/143/207 118/152/208 117/151/209
f 110/143/210 111/144/211 119/153/212 118/152/213
f 111/144/214 112/145/215 120/154/216 119/153/217
f 112/145/218 113/146/219 121/155/220 120/154/221
f 113/146/222 106/139/223 114/148/224 121/155/225
s 12
f 114/156/226 115/157/227 123/158/228 122/159/229
f 115/160/227 116/161/230 124/162/231 123/163/228
f 116/161/230 117/164/232 125/165/233 124/162/231
f 117/164/232 118/166/234 126/167/235 125/165/233
f 118/166/234 119/168/236 127/169/237 126/167/235
f 119/168/236 120/170/238 128/171/239 127/169/237
f 120/170/238 121/172/240 129/173/241 128/171/239
f 121/172/240 114/156/226 122/159/229 129/173/241
f 122/159/229 123/158/228 19/174/242 23/175/243
f 123/163/228 124/162/231 18/176/244 19/177/242
f 124/162/231 125/165/233 22/178/245 18/176/244
f 125/165/233 126/167/235 20/179/246 22/178/245
f 126/167/235 127/169/237 21/180/247 20/179/246
f 127/169/237 128/171/239 25/181/248 21/180/247
f 128/171/239 129/173/241 24/182/249 25/181/248
f 129/173/241 122/159/229 23/175/243 24/182/249
s 13
f 14/36/250 8/18/251 132/183/252 131/184/253
s off
f 8/18/254 2/17/255 133/185/256 132/183/257
s 14
f 2/17/258 13/16/259 130/186/260 133/185/261
s 13
f 7/19/262 14/29/250 131/187/253 134/188/263
s 14
f 13/26/259 1/20/264 135/189/265 130/190/260
s off
f 1/20/266 7/19/267 134/188/268 135/189/269
f 131/184/270 132/183/271 138/191/272 137/192/273
f 132/183/274 133/185/275 139/193/276 138/191/277
f 133/185/278 130/186/279 136/194/280 139/193/281
f 134/188/282 131/187/283 137/195/284 140/196/285
f 130/190/286 135/189/287 141/197/288 136/198/289
f 135/189/290 134/188/291 140/196/292 141/197/293
