# This file uses centimeters as units for non-parametric coordinates.

mtllib rOAD dONE lp.mtl
g default
v 0.500000 -0.500000 -0.500000
v -0.500000 -0.500000 -0.500000
v 0.500000 0.500000 -0.500000
v -0.500000 0.500000 -0.500000
v 0.500000 0.500000 0.500000
v -0.500000 0.500000 0.500000
v -0.500000 0.500000 -0.312500
v 0.500000 0.500000 -0.312500
v -0.500000 0.500000 0.312500
v 0.500000 0.500000 0.312500
v 0.497406 0.511502 -0.500000
v -0.496797 0.511502 -0.500000
v -0.496797 0.511502 -0.312500
v 0.497406 0.511502 -0.312500
v 0.497406 0.511502 0.312500
v 0.497406 0.511502 0.500000
v -0.496797 0.511502 0.312500
v -0.496797 0.511502 0.500000
vt 0.017412 0.027253
vt 0.490994 0.027308
vt 0.551567 0.853848
vt 0.490939 0.500890
vt 0.913243 0.856277
vt 0.912868 0.139735
vt 0.698514 0.139311
vt 0.018895 0.571213
vt 0.493625 0.866922
vt 0.765205 0.858058
vt 0.558178 0.847685
vt 0.558534 0.146762
vt 0.691923 0.145746
vt 0.692018 0.849497
vt 0.906384 0.850545
vt 0.771787 0.851766
vt 0.772136 0.144064
vt 0.906187 0.146123
vt 0.765389 0.137925
vt 0.019343 0.867639
vt 0.493177 0.570496
vt 0.698786 0.855292
vt 0.551773 0.140727
vt 0.017358 0.500835
vn 0.000000 0.000000 -1.000000
vn 0.000000 0.000000 -1.000000
vn 0.000000 0.000000 -1.000000
vn 0.000000 0.000000 -1.000000
vn 0.000000 1.000000 0.000000
vn 0.000000 1.000000 0.000000
vn 0.000000 1.000000 0.000000
vn 0.000000 1.000000 0.000000
vn 0.000000 1.000000 0.000000
vn 0.000000 1.000000 0.000000
vn 0.000000 1.000000 0.000000
vn 0.000000 1.000000 0.000000
vn 0.000000 1.000000 0.000000
vn 0.000000 1.000000 0.000000
vn 0.000000 1.000000 0.000000
vn 0.000000 1.000000 0.000000
vn 0.000000 0.000000 -1.000000
vn 0.000000 0.000000 -1.000000
vn 0.000000 0.000000 -1.000000
vn 0.000000 0.000000 -1.000000
vn -0.963353 0.268236 0.000000
vn -0.963353 0.268236 0.000000
vn -0.963353 0.268236 0.000000
vn -0.963353 0.268236 0.000000
vn 0.000000 0.000000 1.000000
vn 0.000000 0.000000 1.000000
vn 0.000000 0.000000 1.000000
vn 0.000000 0.000000 1.000000
vn 0.975505 0.219978 0.000000
vn 0.975505 0.219978 0.000000
vn 0.975505 0.219978 0.000000
vn 0.975505 0.219978 0.000000
vn 0.975505 0.219978 0.000000
vn 0.975505 0.219978 0.000000
vn 0.975505 0.219978 0.000000
vn 0.975505 0.219978 0.000000
vn 0.000000 0.000000 -1.000000
vn 0.000000 0.000000 -1.000000
vn 0.000000 0.000000 -1.000000
vn 0.000000 0.000000 -1.000000
vn -0.963353 0.268236 0.000000
vn -0.963353 0.268236 0.000000
vn -0.963353 0.268236 0.000000
vn -0.963353 0.268236 0.000000
vn 0.000000 0.000000 1.000000
vn 0.000000 0.000000 1.000000
vn 0.000000 0.000000 1.000000
vn 0.000000 0.000000 1.000000
s off
g pCube121
usemtl initialShadingGroup
f 1/1/1 2/2/2 4/4/3 3/24/4
f 11/11/5 12/12/6 13/13/7 14/14/8
f 7/21/9 9/9/10 10/20/11 8/8/12
f 16/15/13 15/16/14 17/17/15 18/18/16
f 3/3/17 4/23/18 12/12/19 11/11/20
f 4/23/21 7/7/22 13/13/23 12/12/24
f 7/7/25 8/22/26 14/14/27 13/13/28
f 8/22/29 3/3/30 11/11/31 14/14/32
f 5/5/33 10/10/34 15/16/35 16/15/36
f 10/10/37 9/19/38 17/17/39 15/16/40
f 9/19/41 6/6/42 18/18/43 17/17/44
f 6/6/45 5/5/46 16/15/47 18/18/48
