# This file uses centimeters as units for non-parametric coordinates.

mtllib CrossRoad.mtl
g default
v 0.000000 0.500000 0.500000
v 0.000000 0.500000 -0.500000
v -0.312754 0.500000 0.500000
v 0.312583 0.500000 0.500000
v 0.312583 0.500000 -0.500000
v -0.312754 0.500000 -0.500000
v 0.500000 0.500000 0.312500
v 0.312583 0.500000 0.312500
v 0.000000 0.500000 0.312500
v -0.312754 0.500000 0.312500
v -0.500000 0.500000 0.312500
v 0.500000 0.500000 -0.312500
v 0.312583 0.500000 -0.312500
v 0.000000 0.500000 -0.312500
v -0.312754 0.500000 -0.312500
v -0.500000 0.500000 -0.312500
v 0.312563 0.511433 0.500000
v 0.500000 0.511433 0.500000
v 0.500000 0.511433 0.312500
v 0.312563 0.511433 0.312500
v -0.500000 0.511433 -0.312456
v -0.500000 0.511433 -0.500000
v -0.312410 0.511433 -0.312456
v -0.312410 0.511433 -0.500000
v 0.312612 0.511433 -0.500000
v 0.312612 0.511433 -0.312500
v 0.500000 0.511433 -0.312500
v 0.500000 0.511433 -0.500000
v -0.500000 0.511433 0.500000
v -0.312976 0.511433 0.500000
v -0.312976 0.511433 0.312500
v -0.500000 0.511433 0.312500
vt 0.327716 0.025223
vt 0.323988 0.640534
vt 0.126472 0.020217
vt 0.520052 0.026389
vt 0.525622 0.637577
vt 0.131547 0.639368
vt 0.632207 0.128148
vt 0.543012 0.118337
vt 0.327017 0.140594
vt 0.116381 0.121015
vt 0.019362 0.138730
vt 0.632342 0.527027
vt 0.540088 0.545647
vt 0.324687 0.525163
vt 0.116730 0.536266
vt 0.017094 0.532416
vt 0.535363 0.027772
vt 0.638200 0.019354
vt 0.633697 0.122434
vt 0.546863 0.114251
vt 0.017439 0.637579
vt 0.015922 0.538373
vt 0.112858 0.540378
vt 0.116955 0.637465
vt 0.531465 0.639393
vt 0.544137 0.549834
vt 0.634199 0.542164
vt 0.637881 0.649055
vt 0.020226 0.013912
vt 0.120502 0.018691
vt 0.112409 0.116758
vt 0.013988 0.114704
vt 0.132246 0.523997
vt 0.017032 0.523299
vt 0.632643 0.536142
vt 0.517023 0.526328
vt 0.134576 0.139428
vt 0.014941 0.120909
vt 0.634672 0.142458
vt 0.519353 0.141759
vt 0.516324 0.641699
vt 0.135275 0.024057
vt 0.122996 0.636107
vt 0.529631 0.029550
vn 0.000000 1.000000 0.000000
vn 0.000000 1.000000 0.000000
vn 0.000000 1.000000 0.000000
vn 0.000000 1.000000 0.000000
vn 0.000000 1.000000 0.000000
vn 0.000000 1.000000 0.000000
vn 0.000000 1.000000 0.000000
vn 0.000000 1.000000 0.000000
vn 0.000000 1.000000 0.000000
vn 0.000000 1.000000 0.000000
vn 0.000000 1.000000 0.000000
vn 0.000000 1.000000 0.000000
vn 0.000000 1.000000 0.000000
vn 0.000000 1.000000 0.000000
vn 0.000000 1.000000 0.000000
vn 0.000000 1.000000 0.000000
vn 0.000000 1.000000 0.000000
vn 0.000000 1.000000 0.000000
vn 0.000000 1.000000 0.000000
vn 0.000000 1.000000 0.000000
vn 0.000000 1.000000 0.000000
vn 0.000000 1.000000 0.000000
vn 0.000000 1.000000 0.000000
vn 0.000000 1.000000 0.000000
vn 0.000000 1.000000 0.000000
vn 0.000000 1.000000 0.000000
vn 0.000000 1.000000 0.000000
vn 0.000000 1.000000 0.000000
vn 0.000000 1.000000 0.000000
vn 0.000000 1.000000 0.000000
vn 0.000000 1.000000 0.000000
vn 0.000000 1.000000 0.000000
vn 0.000000 1.000000 0.000000
vn 0.000000 1.000000 0.000000
vn 0.000000 1.000000 0.000000
vn 0.000000 1.000000 0.000000
vn 0.000000 1.000000 0.000000
vn 0.000000 1.000000 0.000000
vn 0.000000 1.000000 0.000000
vn 0.000000 1.000000 0.000000
vn 0.000000 0.000000 -1.000000
vn 0.000000 0.000000 -1.000000
vn 0.000000 0.000000 -1.000000
vn 0.000000 0.000000 -1.000000
vn -0.999998 -0.001793 0.000000
vn -0.999998 -0.001793 0.000000
vn -0.999998 -0.001793 0.000000
vn -0.999998 -0.001793 0.000000
vn 0.000000 -0.003808 0.999993
vn 0.000000 -0.003808 0.999993
vn 0.000000 -0.003808 0.999993
vn 0.000000 -0.003808 0.999993
vn 0.999549 -0.030028 0.000000
vn 0.999549 -0.030028 0.000000
vn 0.999549 -0.030028 0.000000
vn 0.999549 -0.030028 0.000000
vn -0.999997 0.002518 0.000000
vn -0.999997 0.002518 0.000000
vn -0.999997 0.002518 0.000000
vn -0.999997 0.002518 0.000000
vn 0.000000 0.000000 1.000000
vn 0.000000 0.000000 1.000000
vn 0.000000 0.000000 1.000000
vn 0.000000 0.000000 1.000000
vn 0.999811 0.019459 0.000000
vn 0.999811 0.019459 0.000000
vn 0.999811 0.019459 0.000000
vn 0.999811 0.019459 0.000000
vn 0.000000 0.000000 -1.000000
vn 0.000000 0.000000 -1.000000
vn 0.000000 0.000000 -1.000000
vn 0.000000 0.000000 -1.000000
s off
g pCube108
usemtl initialShadingGroup
f 10/37/1 15/33/2 16/34/3 11/11/4
s 1
f 1/1/5 4/4/6 8/40/7 9/9/8
s off
f 12/12/9 13/36/10 8/40/11 7/39/12
s 2
f 6/6/13 15/33/14 14/14/15 2/2/16
s off
f 29/29/17 30/30/18 31/31/19 32/32/20
s 2
f 3/42/21 1/1/22 9/9/23 10/37/24
s off
f 17/17/25 18/18/26 19/19/27 20/20/28
s 1
f 8/40/7 13/36/29 14/14/30 9/9/8
s off
f 25/25/31 26/26/32 27/27/33 28/28/34
s 1
f 2/2/35 14/14/30 13/36/29 5/41/36
s off
f 22/21/37 21/22/38 23/23/39 24/24/40
s 2
f 9/9/23 14/14/15 15/33/14 10/37/24
s off
f 7/7/41 8/8/42 20/20/43 19/19/44
f 8/8/45 4/44/46 17/17/47 20/20/48
f 16/16/49 15/15/50 23/23/51 21/22/52
f 15/15/53 6/43/54 24/24/55 23/23/56
f 5/5/57 13/13/58 26/26/59 25/25/60
f 13/13/61 12/35/62 27/27/63 26/26/64
f 3/3/65 10/10/66 31/31/67 30/30/68
f 10/10/69 11/38/70 32/32/71 31/31/72
