# Wavefront Obj file
# 
# verts: 81 uv-s: 117
mtllib Spokes_with_1_raw_done.mtl

g polySurface10

v -0.493729 -0.500000 0.500000
v 0.506271 -0.500000 0.500000
v -0.493729 -0.105552 -0.500000
v -0.493729 -0.105552 0.500000
v 0.506271 -0.105552 0.500000
v 0.506271 -0.105552 -0.500000
v 0.072334 -0.121278 -0.068828
v 0.003083 -0.121278 -0.097513
v -0.066168 -0.121278 -0.068828
v -0.094852 -0.121278 0.000423
v -0.066168 -0.121278 0.069674
v 0.003083 -0.121278 0.098358
v 0.072334 -0.121278 0.069674
v 0.101018 -0.121278 0.000423
v 0.072334 -0.034159 -0.068828
v 0.003083 -0.034159 -0.097513
v -0.066168 -0.034159 -0.068828
v -0.094852 -0.034159 0.000423
v -0.066168 -0.034159 0.069674
v 0.003083 -0.034159 0.098358
v 0.072334 -0.034159 0.069674
v 0.101018 -0.034159 0.000423
v 0.047796 -0.034159 -0.044290
v 0.003083 -0.034159 -0.062811
v -0.041630 -0.034159 -0.044290
v -0.060151 -0.034159 0.000423
v -0.041630 -0.034159 0.045136
v 0.003083 -0.034159 0.063657
v 0.047796 -0.034159 0.045136
v 0.066317 -0.034159 0.000423
v 0.003083 0.516797 0.000423
v -0.272366 -0.121278 -0.068828
v -0.341617 -0.121278 -0.097513
v -0.410867 -0.121278 -0.068828
v -0.439552 -0.121278 0.000423
v -0.410867 -0.121278 0.069674
v -0.341617 -0.121278 0.098358
v -0.272366 -0.121278 0.069674
v -0.243681 -0.121278 0.000423
v -0.272366 -0.034159 -0.068828
v -0.341617 -0.034159 -0.097513
v -0.410867 -0.034159 -0.068828
v -0.439552 -0.034159 0.000423
v -0.410867 -0.034159 0.069674
v -0.341617 -0.034159 0.098358
v -0.272366 -0.034159 0.069674
v -0.243681 -0.034159 0.000423
v -0.296903 -0.034159 -0.044290
v -0.341617 -0.034159 -0.062811
v -0.386330 -0.034159 -0.044290
v -0.404851 -0.034159 0.000423
v -0.386330 -0.034159 0.045136
v -0.341617 -0.034159 0.063657
v -0.296903 -0.034159 0.045136
v -0.278383 -0.034159 0.000423
v -0.341617 0.516797 0.000423
v 0.404398 -0.121278 -0.068828
v 0.335147 -0.121278 -0.097513
v 0.265896 -0.121278 -0.068828
v 0.237212 -0.121278 0.000423
v 0.265896 -0.121278 0.069674
v 0.335147 -0.121278 0.098358
v 0.404398 -0.121278 0.069674
v 0.433082 -0.121278 0.000423
v 0.404398 -0.034159 -0.068828
v 0.335147 -0.034159 -0.097513
v 0.265896 -0.034159 -0.068828
v 0.237212 -0.034159 0.000423
v 0.265896 -0.034159 0.069674
v 0.335147 -0.034159 0.098358
v 0.404398 -0.034159 0.069674
v 0.433082 -0.034159 0.000423
v 0.379860 -0.034159 -0.044290
v 0.335147 -0.034159 -0.062811
v 0.290434 -0.034159 -0.044290
v 0.271913 -0.034159 0.000423
v 0.290434 -0.034159 0.045136
v 0.335147 -0.034159 0.063657
v 0.379860 -0.034159 0.045136
v 0.398381 -0.034159 0.000423
v 0.335147 0.516797 0.000423
# 81 positions

vt 0.414294 0.720653
vt 0.363565 0.926673
vt 0.157205 0.877578
vt 0.208413 0.671713
vt 0.420209 0.988734
vt 0.096258 0.935123
vt 0.101064 0.214636
vt 0.127924 0.105218
vt 0.235004 0.141964
vt 0.211926 0.221883
vt 0.179064 0.011000
vt 0.287650 0.069650
vt 0.512648 0.639211
vt 0.412594 0.626601
vt 0.438586 0.521309
vt 0.532370 0.524176
vt 0.308194 0.591181
vt 0.358717 0.493574
vt 0.216175 0.525828
vt 0.292098 0.445379
vt 0.146881 0.435487
vt 0.242920 0.380253
vt 0.107268 0.328429
vt 0.215270 0.303584
vt 0.271478 0.163393
vt 0.254424 0.228968
vt 0.309962 0.112362
vt 0.445141 0.478640
vt 0.511801 0.478420
vt 0.379795 0.456008
vt 0.323732 0.415779
vt 0.281970 0.361305
vt 0.258146 0.297146
vt 0.777918 0.954223
vt 0.818958 0.053503
vt 0.897331 0.060511
vt 0.974796 0.074326
vt 0.362953 0.153733
vt 0.434325 0.120602
vt 0.508314 0.093820
vt 0.584355 0.073590
vt 0.661872 0.060068
vt 0.740271 0.053355
vt 0.101064 0.214636
vt 0.127924 0.105218
vt 0.235004 0.141964
vt 0.211926 0.221883
vt 0.179064 0.011000
vt 0.287650 0.069650
vt 0.512648 0.639211
vt 0.412594 0.626601
vt 0.438586 0.521309
vt 0.532370 0.524176
vt 0.308194 0.591181
vt 0.358717 0.493574
vt 0.216175 0.525828
vt 0.292098 0.445379
vt 0.146881 0.435487
vt 0.242920 0.380253
vt 0.107268 0.328429
vt 0.215270 0.303584
vt 0.271478 0.163393
vt 0.254424 0.228968
vt 0.309962 0.112362
vt 0.445141 0.478640
vt 0.511801 0.478420
vt 0.379795 0.456008
vt 0.323732 0.415779
vt 0.281970 0.361305
vt 0.258146 0.297146
vt 0.777918 0.954223
vt 0.818958 0.053503
vt 0.897331 0.060511
vt 0.974796 0.074326
vt 0.362953 0.153733
vt 0.434325 0.120602
vt 0.508314 0.093820
vt 0.584355 0.073590
vt 0.661872 0.060068
vt 0.740271 0.053355
vt 0.101064 0.214636
vt 0.127924 0.105218
vt 0.235004 0.141964
vt 0.211926 0.221883
vt 0.179064 0.011000
vt 0.287650 0.069650
vt 0.512648 0.639211
vt 0.412594 0.626601
vt 0.438586 0.521309
vt 0.532370 0.524176
vt 0.308194 0.591181
vt 0.358717 0.493574
vt 0.216175 0.525828
vt 0.292098 0.445379
vt 0.146881 0.435487
vt 0.242920 0.380253
vt 0.107268 0.328429
vt 0.215270 0.303584
vt 0.271478 0.163393
vt 0.254424 0.228968
vt 0.309962 0.112362
vt 0.445141 0.478640
vt 0.511801 0.478420
vt 0.379795 0.456008
vt 0.323732 0.415779
vt 0.281970 0.361305
vt 0.258146 0.297146
vt 0.777918 0.954223
vt 0.818958 0.053503
vt 0.897331 0.060511
vt 0.974796 0.074326
vt 0.362953 0.153733
vt 0.434325 0.120602
vt 0.508314 0.093820
vt 0.584355 0.073590
vt 0.661872 0.060068
vt 0.740271 0.053355
# 117 texture coordinates

vn 0.000000 1.000000 0.000000
vn 0.000000 1.000000 0.000000
vn 0.000000 1.000000 0.000000
vn 0.000000 1.000000 0.000000
vn 0.000000 0.000000 1.000000
vn 0.000000 0.000000 1.000000
vn 0.000000 0.000000 1.000000
vn 0.000000 0.000000 1.000000
vn 0.707111 0.000000 -0.707102
vn 0.000000 0.000000 -1.000000
vn 0.000000 0.000000 -1.000000
vn 0.707111 0.000000 -0.707102
vn -0.707111 0.000000 -0.707102
vn -0.707111 0.000000 -0.707102
vn -1.000000 0.000000 0.000000
vn -1.000000 0.000000 0.000000
vn -0.707107 0.000000 0.707107
vn -0.707107 0.000000 0.707107
vn 0.000000 0.000000 1.000000
vn 0.000000 0.000000 1.000000
vn 0.707107 0.000000 0.707107
vn 0.707107 0.000000 0.707107
vn 1.000000 0.000000 0.000000
vn 1.000000 0.000000 0.000000
vn 0.000000 1.000000 0.000000
vn 0.000000 1.000000 0.000000
vn 0.000000 1.000000 0.000000
vn 0.000000 1.000000 0.000000
vn 0.000000 1.000000 0.000000
vn 0.000000 1.000000 0.000000
vn 0.000000 1.000000 0.000000
vn 0.000000 1.000000 0.000000
vn 0.000000 1.000000 0.000000
vn 0.000000 1.000000 0.000000
vn 0.000000 1.000000 0.000000
vn 0.000000 1.000000 0.000000
vn 0.000000 1.000000 0.000000
vn 0.000000 1.000000 0.000000
vn 0.000000 1.000000 0.000000
vn 0.000000 1.000000 0.000000
vn 0.000000 1.000000 0.000000
vn 0.697972 0.160215 -0.697972
vn 0.000000 0.114023 -0.993478
vn -0.697972 0.160215 -0.697972
vn -0.993478 0.114023 0.000000
vn -0.697972 0.160215 0.697972
vn 0.000000 0.114023 0.993478
vn 0.697972 0.160215 0.697972
vn 0.993478 0.114023 0.000000
vn 0.707107 0.000000 -0.707107
vn -0.000003 0.000000 -1.000000
vn -0.000003 0.000000 -1.000000
vn 0.707107 0.000000 -0.707107
vn -0.707108 0.000000 -0.707105
vn -0.707108 0.000000 -0.707105
vn -1.000000 0.000000 0.000000
vn -1.000000 0.000000 0.000000
vn -0.707104 0.000000 0.707109
vn -0.707104 0.000000 0.707109
vn -0.000003 0.000000 1.000000
vn -0.000003 0.000000 1.000000
vn 0.707102 0.000000 0.707111
vn 0.707102 0.000000 0.707111
vn 1.000000 0.000000 0.000000
vn 1.000000 0.000000 0.000000
vn 0.000000 1.000000 0.000000
vn 0.000000 1.000000 0.000000
vn 0.000000 1.000000 0.000000
vn 0.000000 1.000000 0.000000
vn 0.000000 1.000000 0.000000
vn 0.000000 1.000000 0.000000
vn 0.000000 1.000000 0.000000
vn 0.000000 1.000000 0.000000
vn 0.000000 1.000000 0.000000
vn 0.000000 1.000000 0.000000
vn 0.000000 1.000000 0.000000
vn 0.000000 1.000000 0.000000
vn 0.000000 1.000000 0.000000
vn 0.000000 1.000000 0.000000
vn 0.000000 1.000000 0.000000
vn 0.000000 1.000000 0.000000
vn -0.000005 1.000000 0.000000
vn 0.697973 0.160215 -0.697972
vn 0.000000 0.114023 -0.993478
vn -0.697972 0.160215 -0.697972
vn -0.993478 0.114023 0.000000
vn -0.697972 0.160215 0.697972
vn 0.000000 0.114023 0.993478
vn 0.697973 0.160215 0.697972
vn 0.993478 0.114023 0.000000
vn 0.707111 0.000000 -0.707102
vn 0.000000 0.000000 -1.000000
vn 0.000000 0.000000 -1.000000
vn 0.707111 0.000000 -0.707102
vn -0.707111 0.000000 -0.707102
vn -0.707111 0.000000 -0.707102
vn -1.000000 0.000000 0.000000
vn -1.000000 0.000000 0.000000
vn -0.707107 0.000000 0.707107
vn -0.707107 0.000000 0.707107
vn 0.000000 0.000000 1.000000
vn 0.000000 0.000000 1.000000
vn 0.707107 0.000000 0.707107
vn 0.707107 0.000000 0.707107
vn 1.000000 0.000000 0.000000
vn 1.000000 0.000000 0.000000
vn 0.000000 1.000000 0.000000
vn 0.000000 1.000000 0.000000
vn 0.000000 1.000000 0.000000
vn 0.000000 1.000000 0.000000
vn 0.000000 1.000000 0.000000
vn 0.000000 1.000000 0.000000
vn 0.000000 1.000000 0.000000
vn 0.000000 1.000000 0.000000
vn 0.000000 1.000000 0.000000
vn 0.000000 1.000000 0.000000
vn 0.000000 1.000000 0.000000
vn 0.000000 1.000000 0.000000
vn 0.000000 1.000000 0.000000
vn 0.000000 1.000000 0.000000
vn 0.000000 1.000000 0.000000
vn 0.000000 1.000000 0.000000
vn 0.000000 1.000000 0.000000
vn 0.697972 0.160215 -0.697972
vn 0.000000 0.114023 -0.993478
vn -0.697972 0.160215 -0.697973
vn -0.993478 0.114023 0.000000
vn -0.697972 0.160215 0.697973
vn 0.000000 0.114023 0.993478
vn 0.697972 0.160215 0.697972
vn 0.993478 0.114023 0.000000
# 131 normals

usemtl initialShadingGroup
s 1
f 3/1/1 4/2/2 5/3/3 6/4/4
s 2
f 1/5/5 2/6/6 5/3/7 4/2/8
s 3
f 7/7/9 8/8/10 16/9/11 15/10/12
f 8/8/10 9/11/13 17/12/14 16/9/11
f 9/13/13 10/14/15 18/15/16 17/16/14
f 10/14/15 11/17/17 19/18/18 18/15/16
f 11/17/17 12/19/19 20/20/20 19/18/18
f 12/19/19 13/21/21 21/22/22 20/20/20
f 13/21/21 14/23/23 22/24/24 21/22/22
f 14/23/23 7/7/9 15/10/12 22/24/24
s 4
f 15/10/25 16/9/26 24/25/27 23/26/28
f 16/9/26 17/12/29 25/27/30 24/25/27
f 17/16/29 18/15/31 26/28/32 25/29/30
f 18/15/31 19/18/33 27/30/34 26/28/32
f 19/18/33 20/20/35 28/31/36 27/30/34
f 20/20/35 21/22/37 29/32/38 28/31/36
f 21/22/37 22/24/39 30/33/40 29/32/38
f 22/24/39 15/10/25 23/26/28 30/33/40
s 5
f 31/34/41 23/35/42 24/36/43 25/37/44
f 31/34/41 25/38/44 26/39/45 27/40/46
f 31/34/41 27/40/46 28/41/47 29/42/48
f 31/34/41 29/42/48 30/43/49 23/35/42
s 6
f 32/44/50 33/45/51 41/46/52 40/47/53
f 33/45/51 34/48/54 42/49/55 41/46/52
f 34/50/54 35/51/56 43/52/57 42/53/55
f 35/51/56 36/54/58 44/55/59 43/52/57
f 36/54/58 37/56/60 45/57/61 44/55/59
f 37/56/60 38/58/62 46/59/63 45/57/61
f 38/58/62 39/60/64 47/61/65 46/59/63
f 39/60/64 32/44/50 40/47/53 47/61/65
s 7
f 40/47/66 41/46/67 49/62/68 48/63/69
f 41/46/67 42/49/70 50/64/71 49/62/68
f 42/53/70 43/52/72 51/65/73 50/66/71
f 43/52/72 44/55/74 52/67/75 51/65/73
f 44/55/74 45/57/76 53/68/77 52/67/75
f 45/57/76 46/59/78 54/69/79 53/68/77
f 46/59/78 47/61/80 55/70/81 54/69/79
f 47/61/80 40/47/66 48/63/69 55/70/81
s 8
f 56/71/82 48/72/83 49/73/84 50/74/85
f 56/71/82 50/75/85 51/76/86 52/77/87
f 56/71/82 52/77/87 53/78/88 54/79/89
f 56/71/82 54/79/89 55/80/90 48/72/83
s 9
f 57/81/91 58/82/92 66/83/93 65/84/94
f 58/82/92 59/85/95 67/86/96 66/83/93
f 59/87/95 60/88/97 68/89/98 67/90/96
f 60/88/97 61/91/99 69/92/100 68/89/98
f 61/91/99 62/93/101 70/94/102 69/92/100
f 62/93/101 63/95/103 71/96/104 70/94/102
f 63/95/103 64/97/105 72/98/106 71/96/104
f 64/97/105 57/81/91 65/84/94 72/98/106
s 10
f 65/84/107 66/83/108 74/99/109 73/100/110
f 66/83/108 67/86/111 75/101/112 74/99/109
f 67/90/111 68/89/113 76/102/114 75/103/112
f 68/89/113 69/92/115 77/104/116 76/102/114
f 69/92/115 70/94/117 78/105/118 77/104/116
f 70/94/117 71/96/119 79/106/120 78/105/118
f 71/96/119 72/98/121 80/107/122 79/106/120
f 72/98/121 65/84/107 73/100/110 80/107/122
s 11
f 81/108/123 73/109/124 74/110/125 75/111/126
f 81/108/123 75/112/126 76/113/127 77/114/128
f 81/108/123 77/114/128 78/115/129 79/116/130
f 81/108/123 79/116/130 80/117/131 73/109/124

# 62 faces
